<?xml version="1.0" standalone="no"?>
<!DOCTYPE svg PUBLIC "-//W3C//DTD SVG 1.1//EN" "http://www.w3.org/Graphics/SVG/1.1/DTD/svg11.dtd" >
<svg xmlns="http://www.w3.org/2000/svg">
<metadata>Generated by IcoMoon</metadata>
<defs>
<font id="icomoon" horiz-adv-x="1024">
<font-face units-per-em="1024" ascent="960" descent="-64" />
<missing-glyph horiz-adv-x="1024" />
<glyph unicode="&#x20;" d="" horiz-adv-x="512" />
<glyph unicode="&#xe600;" d="M102.43 960.038h819.215c56.393 0 102.392-45.999 102.392-102.392v-819.215c0-56.393-45.999-102.392-102.392-102.392h-819.215c-56.393 0-102.392 45.999-102.392 102.392v819.215c0 56.393 45.999 102.392 102.392 102.392z" />
<glyph unicode="&#xe601;" d="M152.549 950.891l783.648-463.128c31.825-18.899 31.825-60.551 0-79.45l-783.648-463.128c-41.123-23.737-89.73 0.454-88.559 49.514 0 302.188 0 604.49 0 906.678-1.172 49.061 47.435 73.251 88.559 49.514z" />
<glyph unicode="&#xe602;" d="M68.904 887.996l397.588-341.913v298.56c-0.945 42.975 36.814 64.18 68.866 43.353l471.255-405.299c22.981-18.861 23.434-49.854 0-69.433l-471.255-405.261c-32.052-20.826-69.811 0.378-68.866 43.353v298.522l-397.588-341.875c-32.052-20.826-69.774 0.378-68.866 43.353 0 264.315 0 528.971 0 793.286-0.907 42.975 36.814 64.18 68.866 43.353z" />
<glyph unicode="&#xe603;" d="M955.171 887.996l-397.588-341.913v298.56c0.945 42.975-36.814 64.18-68.866 43.353l-471.255-405.299c-22.981-18.861-23.434-49.854 0-69.433l471.255-405.261c32.052-20.826 69.811 0.378 68.866 43.353v298.522l397.588-341.875c32.052-20.826 69.774 0.378 68.866 43.353 0 264.315 0 528.971 0 793.286 0.907 42.975-36.814 64.18-68.866 43.353z" />
<glyph unicode="&#xe604;" d="M979.9 912.828c1.126 39.424-43.793 58.88-81.886 39.765l-582.075-347.104v301.535c0 28.399-26.146 51.61-58.095 51.61h-29.082c-31.949 0-58.095-23.518-58.095-51.61v-761.107c0-28.126 26.453-51.644 58.095-51.644h29.082c31.642 0 58.095 23.245 58.095 51.644v296.175l582.075-341.708c38.093-19.081 83.013 0.375 81.886 39.765 0 778.377 0-5.666 0 772.677z" />
<glyph unicode="&#xe605;" d="M63.991 875.826c-1.247 43.656 48.494 65.2 90.675 44.034l644.555-384.359v333.9c0 31.447 28.953 57.149 64.331 57.149h32.203c35.378 0 64.331-26.042 64.331-57.149v-842.801c0-31.145-29.293-57.187-64.331-57.187h-32.203c-35.038 0-64.331 25.74-64.331 57.187v327.966l-644.555-378.387c-42.182-21.129-91.923 0.416-90.675 44.034 0 861.926 0-6.274 0 855.614z" />
<glyph unicode="&#xe606;" d="M80.924 888.034l362.701-341.875v298.522c-1.134 42.938 43.24 64.18 80.886 43.353l356.049-328.268v278.565c0 30.956 25.815 56.28 57.376 56.28h28.726c31.561 0 57.376-25.324 57.376-56.28v-780.662c0-30.956-25.815-56.242-57.376-56.242h-28.726c-31.561 0-57.376 25.286-57.376 56.242v278.64l-356.049-328.23c-37.646-20.826-82.020 0.378-80.886 43.316v298.56l-362.701-341.875c-37.646-20.826-81.982 0.378-80.886 43.316 0 264.315 0 528.971 0 793.286-1.096 42.938 43.24 64.18 80.886 43.353z" />
<glyph unicode="&#xe607;" d="M943.152 888.034l-362.701-341.875v298.522c1.134 42.938-43.24 64.18-80.886 43.353l-356.049-328.268v278.565c0 30.956-25.815 56.28-57.376 56.28h-28.726c-31.561 0-57.376-25.324-57.376-56.28v-780.662c0-30.956 25.815-56.242 57.376-56.242h28.726c31.561 0 57.376 25.286 57.376 56.242v278.64l356.049-328.23c37.646-20.826 82.020 0.378 80.886 43.316v298.56l362.701-341.875c37.646-20.826 81.982 0.378 80.886 43.316 0 264.315 0 528.971 0 793.286 1.096 42.938-43.24 64.18-80.886 43.353z" />
<glyph unicode="&#xe608;" d="M392.907 592.349h134.759v-363.11h-113.355v294.912l-43.793-0.102zM299.896 789.333h337.34c167.697 0 286.618-184.457 287.573-370.347 0.922-189.508-118.921-381.030-287.573-381.030h-230.093l197.905 268.049v-141.346h8.397c103.321 0 190.464 128.546 189.474 254.839-0.99 122.334-87.279 243.098-189.474 243.098h-284.672c-103.833 0-202.206-124.553-201.762-248.934 0.444-124.45 100.011-249.003 201.762-249.003h92.501l-96.973-126.703h-24.405c-167.833 0-300.032 189.611-299.896 378.231 0.171 186.914 131.379 373.145 299.896 373.145z" />
<glyph unicode="&#xe609;" d="M854.253 432.503l169.747-205.805-169.747-226.745v432.55zM85.119 778.423h169.293c299.996 0 273.084-452.923 471.557-452.923h76.464v-208.3h-99.293c-313.792 0-297.841 452.923-467.097 452.923h-150.924c-113.165 0-113.958 208.3 0 208.3zM85.119 117.502h169.293c99.18 0 153.57 37.268 201.194 103.526-37.835 56.242-53.974 92.263-84.401 154.628-30.729-53.143-80.886-86.669-129.38-86.669h-156.707c-105.416 0-104.471-171.486 0-171.486zM584.608 512.633c33.072 53.748 96.647 96.232 153.986 96.232h63.839v169.86h-76.464c-104.169 0-172.544-49.93-223.494-116.642 36.323-57.376 50.497-88.408 82.133-149.45zM1024 669.227l-169.747 226.783v-411.157l169.747 184.374z" />
<glyph unicode="&#xe60a;" d="M753.41 706.91c153.456-137.204 159.504-366.594 6.085-506.33l-39.838 39.158c131.080 120.837 122.841 314.397-9.034 430.887l42.786 36.285zM458.404 907.764l-219.79-235.968h-215.746c-10.054 0-22.905-10.13-22.905-22.414v-403.522c0-12.284 12.851-22.414 22.905-22.414h215.784l222.436-238.916c30.049-29.104 89.693-7.862 88.748 38.137 0 283.214 0 566.768 0 849.982 0.945 45.999-56.771 71.172-91.431 35.114zM865.668 802.121c212.798-193.824 210.076-510.753-2.117-704.085l-39.8 39.233c190.989 170.427 188.419 458.555-1.021 628.453l42.938 36.399zM650.375 619.599c100.351-86.555 112.522-231.281 13.569-325.055l-39.8 39.271c73.062 71.928 63.764 186.907-16.669 249.386l42.9 36.399z" />
<glyph unicode="&#xe60b;" d="M0.038 111.87h1024v-143.856h-1024v143.856zM1024.038 267.065l-512 660.996-512-660.996h1024z" />
<glyph unicode="&#xe60c;" d="M570.019 895.707v-514.495c0-76.501-115.999-76.501-115.999 0v514.495c0 76.501 115.999 76.501 115.999 0zM629.7 890.075c211.248-53.294 363.155-245.681 363.155-466.265 0-264.618-216.2-480.817-480.817-480.817s-480.817 216.2-480.817 480.817c0 220.584 151.907 412.972 363.155 466.265v-113.769c-150.13-49.892-253.808-192.425-253.808-352.496 0-204.709 166.723-371.47 371.47-371.47s371.47 166.761 371.47 371.47c0 160.071-103.678 302.604-253.808 352.496v113.769z" />
<glyph unicode="&#xe60d;" d="M784.404 960.076h-165.816c-30.238 0-36.89-3.213-54.125-24.568l-332.955-425.369c-32.695-40.065-32.695-84.136 0-124.201l332.955-425.369c17.235-21.355 23.888-24.568 54.125-24.568h165.816c27.705 0 40.178 27.479 28.121 44.903l-365.498 467.135 365.498 467.135c12.057 17.424-0.416 44.903-28.121 44.903z" />
<glyph unicode="&#xe60e;" d="M239.672 960.076h165.816c30.238 0 36.89-3.213 54.125-24.568l332.955-425.369c32.695-40.065 32.695-84.136 0-124.201l-332.955-425.369c-17.235-21.355-23.888-24.568-54.125-24.568h-165.816c-27.705 0-40.178 27.479-28.121 44.903l365.498 467.135-365.498 467.135c-12.057 17.424 0.416 44.903 28.121 44.903z" />
<glyph unicode="&#xe60f;" d="M1024.076 720.404v-165.816c0-30.238-3.213-36.89-24.568-54.125l-425.369-332.955c-40.065-32.695-84.136-32.695-124.201 0l-425.369 332.955c-21.355 17.235-24.568 23.888-24.568 54.125v165.816c0 27.705 27.479 40.178 44.903 28.121l467.135-365.498 467.135 365.498c17.424 12.057 44.903-0.416 44.903-28.121z" />
<glyph unicode="&#xe610;" d="M1024.076 175.672v165.816c0 30.238-3.213 36.89-24.568 54.125l-425.369 332.955c-40.065 32.695-84.136 32.695-124.201 0l-425.369-332.955c-21.355-17.235-24.568-23.888-24.568-54.125v-165.816c0-27.705 27.479-40.178 44.903-28.121l467.135 365.498 467.135-365.498c17.424-12.057 44.903 0.416 44.903 28.121z" />
<glyph unicode="&#xe611;" d="M270.665 129.635l-250.557 261.367c-73.856 78.316 74.347 231.772 150.508 148.959l193.030-200.325 546.358 463.204c56.734 49.325 150.092-51.48 99.709-102.808l-554.711-571.719c-66.712-68.791-125.184-60.4-184.337 1.323z" />
<glyph unicode="&#xe612;" d="M122.123 875.675l-37.797-37.949c-13.494-13.494-20.259-31.485-20.259-49.439 0-17.916 6.766-35.869 20.297-49.401l0.151-0.113 290.66-290.698-290.773-290.773c-13.531-13.531-20.41-31.523-20.41-49.476 0-18.067 6.841-36.172 20.373-49.703l37.722-37.608 0.265-0.151c13.494-13.494 31.447-20.297 49.401-20.297s35.945 6.766 49.439 20.259l0.076 0.189 290.773 290.622 290.698-290.773c13.569-13.531 31.561-20.373 49.59-20.373 17.916 0 35.945 6.841 49.552 20.41l0.038-0.038 37.873 37.873c13.494 13.456 20.297 31.523 20.297 49.514s-6.841 36.021-20.373 49.552l-0.038-0.038-290.773 290.736 26.042 26.080 264.618 264.542c13.607 13.607 20.41 31.636 20.41 49.703 0 17.916-6.803 35.945-20.41 49.552l0.038 0.038-37.722 37.759-0.189 0.038c-13.531 13.531-31.485 20.373-49.439 20.373-17.916 0-35.907-6.841-49.439-20.373l-290.811-290.811-290.698 290.66c-13.531 13.569-31.523 20.41-49.476 20.41-18.067 0-36.172-6.766-49.703-20.297z" />
<glyph unicode="&#xe613;" d="M535.207 960h-46.264c-39.725 0-72.797-32.959-72.797-72.759v-343.311h-343.349c-39.952 0-72.759-32.77-72.759-72.722v-46.226c0-39.763 32.959-72.835 72.759-72.835h343.349v-343.387c0-39.989 32.808-72.797 72.797-72.797h46.264c39.725 0 72.722 33.035 72.722 72.797v343.387h343.349c39.989 0 72.797 32.808 72.797 72.835v46.226c0 39.952-32.846 72.722-72.797 72.722h-343.349v343.311c0 39.914-32.808 72.759-72.722 72.759z" />
<glyph unicode="&#xe614;" d="M938.352 544.043c47.246 0 85.686-34.547 85.686-76.766v-38.44c0-42.295-38.44-76.804-85.686-76.804-593.15 0-259.402 0-852.628 0-47.246 0-85.686 34.471-85.686 76.804v38.44c0 42.295 38.44 76.766 85.686 76.766 593.113 0 259.591 0 852.628 0z" />
<glyph unicode="&#xe615;" d="M371.773 361.785h-167.026v-118.494l-204.785 204.785 204.785 204.823v-119.25h167.026v-171.864zM511.962 960.076l204.785-204.785h-115.546v-167.026h-177.76v167.026h-116.302l204.823 204.785zM652.152 533.648h167.026v119.25l204.823-204.823-204.823-204.785v118.494h-167.026v171.864zM601.201 307.886v-167.026h115.546l-204.785-204.823-204.823 204.823h116.302v167.026h177.76z" />
<glyph unicode="&#xe616;" d="M468.231 264.004l-135.73-135.692 96.307-96.269h-332.804v332.804l96.874-96.912 135.692 135.73 139.66-139.66zM96.005 864.033h332.804l-93.888-93.85 135.692-135.73-144.423-144.423-135.692 135.654-94.493-94.455v332.804zM556.412 631.505l135.654 135.73-96.798 96.836h332.804v-332.766l-96.269 96.269-135.73-135.73-139.66 139.66zM698.453 406.612l135.654-135.692 93.964 93.85v-332.766h-332.804l94.455 94.455-135.73 135.73 144.461 144.423z" />
<glyph unicode="&#xe617;" d="M196.847 896.085l124.768-124.277 86.366 85.951v-304.758h-306.043l86.896 86.518-124.806 124.277 132.819 132.29zM408.474 342.508h-306.006l86.366-85.951-124.806-124.277 132.781-132.29 124.806 124.277 86.858-86.518v304.758zM615.602 342.508h306.006l-86.366-85.951 124.806-124.277-132.781-132.29-124.806 124.277-86.858-86.518v304.758zM827.228 896.085l-124.768-124.277-86.366 85.951v-304.758h306.043l-86.896 86.518 124.806 124.277-132.819 132.29z" />
<glyph unicode="&#xe618;" d="M0 566.721l385.077 345.315v-217.56h214.083c259.251 0.794 423.517-148.996 424.915-373.36 1.361-224.326-161.885-339.040-326.076-337.075 269.645 66.296 246.097 455.002-100.805 455.002h-212.118v-217.56l-385.077 345.239z" />
<glyph unicode="&#xe619;" d="M96.005 189.997l145.595-253.959h22.565c261.67-0.68 445.817 161.961 445.023 434.667v210.568h218.883l-347.393 378.765-347.28-378.765h218.845v-208.64c0.265-100.238-51.177-182.711-186.113-182.636h-170.125z" />
<glyph unicode="&#xe61a;" d="M413.312 686.009l147.447 185.508-217.674 88.559 19.352-75.481c-263.786-66.107-420.342-348.943-342.48-606.455l121.896 31.787c-60.249 191.102 54.73 403.258 252.031 451.978l19.428-75.897zM284.688 230.553l-238.689 30.276 22.754-243.981 65.011 64.406c188.608-197.074 509.808-191.783 692.406 4.8l-88.181 90.486c-134.142-148.392-374.116-154.099-514.381-6.426l61.080 60.438zM730.732 342.811l97.252-224.515 196.092 142.609-85.535 23.888c75.179 263.181-89.655 540.839-350.001 601.617l-33.677-122.16c194.391-43.127 319.386-248.932 262.426-445.553l-86.555 24.115z" />
<glyph unicode="&#xe61b;" d="M342.707 272.054l0.907-285.331-285.557 0.076 95.249 95.438c-177.987 174.018-204.709 455.342-60.438 660.392 109.12 154.893 298.182 237.139 483.766 213.403l0.491-136.259c-142.382 24.719-289.375-34.547-373.927-154.666-106.777-151.453-86.782-359.224 45.281-487.47l94.228 94.417zM870.846 813.649c177.949-174.018 204.634-455.304 60.362-660.354-109.083-154.855-297.841-236.95-483.35-213.44l0.076 136.107c142.042-24.341 288.732 35.227 372.944 154.855 106.815 151.567 86.707 359.073-45.243 487.47l-94.19-94.417-0.907 285.331 285.52-0.113-95.211-95.438z" />
<glyph unicode="&#xe61c;" d="M248.781 707.818l112.862-114.828-329.629 6.917 5.594 322.75 111.388-113.316 4.12 4.158c200.967 197.755 527.005 194.882 724.533-6.085 197.641-201.043 194.844-527.27-6.010-724.911-200.892-197.641-526.892-195.071-724.571 6.010-97.592 99.293-146.577 228.37-147.031 357.561l142.382-7.522c2.306-90.524 37.608-180.519 106.134-250.217 142.911-145.406 377.858-147.409 523.264-4.309 145.368 143.024 147.258 378.16 4.384 523.528-143.024 145.481-377.971 147.409-523.301 4.422l-4.12-4.158z" />
<glyph unicode="&#xe61d;" d="M512.038 960.076c282.723 0 512.038-229.315 512.038-512.038s-229.315-512.038-512.038-512.038c-282.723 0-512.038 229.315-512.038 512.038s229.315 512.038 512.038 512.038zM779.453 718.061c-68.262 68.299-162.868 110.632-267.377 110.632-81.604 0-157.236-25.929-219.072-69.925l527.421-527.421c43.958 61.761 69.811 137.468 69.811 219.148 0 104.396-42.371 199.002-110.783 267.415v0.151zM203.764 669.529c-43.996-61.798-69.887-137.43-69.887-219.034 0-104.509 42.333-199.115 110.632-267.377h0.151c68.413-68.413 163.019-110.783 267.415-110.783 81.68 0 157.312 25.891 219.072 69.811l-527.383 527.383z" />
<glyph unicode="&#xe61e;" d="M512.038 960.076c-282.723 0-512.038-229.315-512.038-512.038s229.315-512.038 512.038-512.038c282.723 0 512.038 229.315 512.038 512.038s-229.315 512.038-512.038 512.038zM512 783.752c52.16 0 94.455-42.408 94.455-94.682 0-52.311-42.295-94.757-94.455-94.757-52.084 0-94.379 42.446-94.379 94.757 0 52.273 42.295 94.682 94.379 94.682zM450.164 502.844h125.033c14.325 0 19.768-9.789 20.373-21.658l9.109-336.508c0.605-15.157-5.027-29.066-22.3-31.825v-0.491h-140.681v0.491c-17.273 2.759-22.867 16.669-22.3 31.825l9.109 336.508c0.643 11.868 6.085 21.658 20.41 21.658h1.247zM512.038 883.574c239.142 0 433.080-193.937 433.080-433.080s-193.937-433.080-433.080-433.080c-239.142 0-433.080 193.937-433.080 433.080s193.937 433.080 433.080 433.080z" />
<glyph unicode="&#xe61f;" d="M512.038-64c-282.723 0-512.038 229.315-512.038 512.038s229.315 512.038 512.038 512.038c282.723 0 512.038-229.315 512.038-512.038s-229.315-512.038-512.038-512.038zM512 112.324c52.16 0 94.455 42.408 94.455 94.682 0 52.311-42.295 94.757-94.455 94.757-52.084 0-94.379-42.446-94.379-94.757 0-52.273 42.295-94.682 94.379-94.682zM450.164 393.232h125.033c14.325 0 19.768 9.789 20.373 21.658l9.109 336.508c0.605 15.157-5.027 29.066-22.3 31.825v0.491h-140.681v-0.491c-17.273-2.759-22.867-16.669-22.3-31.825l9.109-336.508c0.643-11.868 6.085-21.658 20.41-21.658h1.247zM512.038 12.501c239.142 0 433.080 193.937 433.080 433.080s-193.937 433.080-433.080 433.080c-239.142 0-433.080-193.937-433.080-433.080s193.937-433.080 433.080-433.080z" />
<glyph unicode="&#xe620;" d="M512.227 0.028h-437.010c-62.252 0.038-95.816 53.445-61.458 111.086l440.79 748.157c28.877 49.098 86.064 49.098 114.979 0l440.79-748.157c34.358-57.641 0.794-111.048-61.496-111.086h-436.595zM447.707 212.713c0-85.913 128.699-85.913 128.699 0s-128.699 85.913-128.699 0zM453.603 622.585v-289.602c38.931 0 77.938 0 116.831 0v289.602c-38.893 0-77.9 0-116.831 0z" />
<glyph unicode="&#xe621;" d="M511.962 960.076c-282.723 0-512-229.277-512-512 0-282.76 229.277-512.038 512-512.038 282.76 0 512.038 229.277 512.038 512.038 0 282.723-229.277 512-512.038 512zM282.647 532.552c45.319 0 82.020-36.739 82.020-82.020 0-45.319-36.701-82.058-82.020-82.058-45.243 0-82.020 36.739-82.020 82.058 0 45.281 36.777 82.020 82.020 82.020zM512 532.552c45.319 0 82.058-36.739 82.058-82.020 0-45.319-36.739-82.058-82.058-82.058-45.281 0-82.020 36.739-82.020 82.058 0 45.281 36.739 82.020 82.020 82.020zM741.353 532.552c45.281 0 82.058-36.739 82.058-82.020 0-45.319-36.777-82.058-82.058-82.058s-82.020 36.739-82.020 82.058c0 45.281 36.739 82.020 82.020 82.020zM512 872.008c232.755 0 421.514-188.759 421.514-421.476 0-232.793-188.759-421.514-421.514-421.514s-421.476 188.721-421.476 421.514c0 232.717 188.721 421.476 421.476 421.476z" />
<glyph unicode="&#xe622;" d="M515.251 143.166c56.96 0 103.148-46.377 103.148-103.602 0-57.187-46.188-103.526-103.148-103.526-56.998 0-103.224 46.339-103.224 103.526 0 57.225 46.226 103.602 103.224 103.602zM591.79 216.908h-170.73c-1.058 61.874-2.306 125.298 26.723 182.107 46.831 92.187 149.147 130.816 208.224 209.169 40.292 52.689 29.557 123.143-18.936 166.95-62.705 55.826-175.492 51.291-238.198-1.852-31.976-27.29-54.163-69.018-66.296-124.92l-172.62 21.544c4.914 80.206 38.893 148.354 102.052 204.331 130.4 115.281 376.535 114.034 506.708-1.172 91.847-81.642 127.943-208.451 60.551-316.022-56.734-89.504-181.010-140.719-224.477-231.848-9.563-20.184-13.909-56.204-13.002-108.289z" />
<glyph unicode="&#xe623;" d="M579.506 762.283c156.253-137.619 221.227-231.016 444.57-208.111 0 0-85.081-149.601-198.246-207.279-113.24-57.641-191.631-47.020-246.324-38.969v454.359zM0 960.076h92.716v-1024.076h-92.716zM124.39 905.988c135.843 0 293.986 21.847 416.109-59.342v-476.886c-138.262 27.705-276.448 22.489-416.109 22.489v513.739z" />
<glyph unicode="&#xe624;" d="M512.038 944.087l120.346-379.634 391.692 0.68-317.345-233.926 121.82-379.181-316.513 235.174-316.513-235.174 121.82 379.181-317.345 233.926 391.692-0.68z" />
<glyph unicode="&#xe625;" d="M87.349 3.657h849.377v-67.657h-849.377zM370.714 960.076v-463.771h-290.698l432.021-449.257 432.021 449.257h-290.698v463.771z" />
<glyph unicode="&#xe626;" d="M337.113 610.225v-0.302c67.014 0 133.991-19.655 191.291-59.228l242.809 242.998-125.638 125.638 378.463 40.708-20.41-189.175-20.335-189.212-125.675 125.6-242.847-242.922c39.536-57.3 59.19-124.164 59.266-190.989v-0.378c-0.113-185.017-151.982-336.659-336.924-336.659v-0.265c-184.715 0-337.075 152.285-337.075 337.075 0 184.828 152.247 337.113 337.075 337.113z" />
<glyph unicode="&#xe627;" d="M798.351 671.079c0-139.32-99.709-259.251-234.418-284.197v-149.185h236.119v-105.114h-236.119v-196.545h-103.791v196.545h-236.119v105.114h236.119v149.185c-134.558 24.908-234.418 145.028-234.418 284.197 0 158.975 128.964 288.959 286.351 288.959 157.085 0 286.276-130.476 286.276-288.959z" />
<glyph unicode="&#xe628;" d="M619.419 856.285v0c-28.272 0-51.517-23.396-51.517-51.895v-323.884c-4.498 1.058-9.071 1.965-13.683 2.759v421.703c0 30.313-24.568 55.070-54.617 55.070v0c-29.973 0-54.503-24.757-54.503-55.070v-426.919c-5.178-1.021-10.356-2.003-15.383-3.213v363.722c0 28.575-23.132 51.933-51.517 51.933v0c-28.31 0-51.442-23.359-51.442-51.933v-396.757c-5.443-3.704-10.697-7.635-15.875-11.679v270.287c0 28.65-23.17 52.009-51.404 52.009v0c-28.386 0-51.517-23.51-51.517-52.009v-502.626c0-3.213 0.302-6.388 0.869-9.449 11.49-141.135 137.619-252.296 291.416-252.296 161.507 0 292.436 122.425 292.436 273.387v1.852l23.207 397.361c1.55 29.142-12.246 41.993-42.182 38.44-30.049-3.477-61.005-29.104-64.52-58.056l-24.984-204.671c-4.309 3.402-8.693 6.577-13.305 9.6v410.439c0 28.499-23.132 51.895-51.48 51.895z" />
<glyph unicode="&#xe629;" d="M511.962 960.076h0.038c24.568 0 44.563-19.655 44.563-43.656v-124.995h270.703l52.727-109.007-52.727-105.756h-270.703v-108.591h301.772l-52.727-109.838 52.727-104.887h-301.772v-273.689c0-24.001-19.995-43.656-44.563-43.656h-0.038c-24.568 0-44.563 19.655-44.563 43.656v273.689h-270.703l-52.727 105.756 52.727 108.969h270.703v108.591h-301.735l52.689 104.925-52.689 109.838h301.735v124.995c0 24.001 19.995 43.656 44.563 43.656z" />
<glyph unicode="&#xe62a;" d="M657.784 80.914c-17.462-65.049-76.086-112.9-145.746-112.9s-128.283 47.851-145.746 112.9c46.301-3.969 95.173-6.048 145.746-6.048s99.444 2.079 145.746 6.048zM318.365 809.794c-63.802-112.9-80.357-316.551-160.562-450.428-80.243-21.847-137.052-50.988-157.803-83.91v-55.864c15.232-24.039 49.703-46.037 98.575-64.746l620.289 628.982c-4.195 9.109-8.542 17.765-13.153 25.967-89.163 157.69-298.182 157.69-387.345 0zM927.92 909.692l39.309-39.876-871.073-883.357-39.347 39.914 871.111 883.319zM301.054 108.015c64.444-8.429 135.918-13.040 210.984-13.040 255.017 0 467.248 53.823 512.038 124.617v55.864c-20.751 32.921-77.56 62.063-157.803 83.91-40.216 67.166-64.482 151.907-86.669 233.926l-478.55-485.277z" />
<glyph unicode="&#xe62b;" d="M657.784 80.914c-17.462-65.049-76.086-112.9-145.746-112.9s-128.283 47.851-145.746 112.9c46.301-3.969 95.173-6.048 145.746-6.048s99.444 2.079 145.746 6.048zM318.403 809.794c-63.839-112.9-80.395-316.551-160.6-450.428-80.243-21.847-137.052-50.988-157.803-83.91v-55.864c44.79-70.794 257.021-124.617 512.038-124.617s467.248 53.823 512.038 124.617v55.864c-20.751 32.921-77.56 62.063-157.803 83.91-80.206 133.877-96.761 337.528-160.6 450.428-89.126 157.69-298.144 157.69-387.269 0z" />
<glyph unicode="&#xe62c;" d="M512 160.024c-211.815 0-386.476 111.313-512 287.939 125.222 176.739 300.336 288.090 512 288.090 211.929 0 386.4-111.388 512.076-288.052-125.675-176.588-300.147-287.976-512.076-287.976zM511.206 619.032c95.627 0 173.149-77.522 173.149-173.149s-77.522-173.149-173.149-173.149c-95.627 0-173.149 77.522-173.149 173.149s77.522 173.149 173.149 173.149zM917.072 448c-100.918 125.222-249.726 198.246-405.072 198.246s-304.154-73.024-405.034-198.246c100.881-125.222 249.726-198.17 405.034-198.17 155.271 0 304.191 72.948 405.072 198.17z" />
<glyph unicode="&#xe62d;" d="M777.298 321.077l74.914 79.601c-186.264 195.26-493.971 195.373-680.348 0l74.914-79.601c146.766 154.515 384.019 154.326 530.521 0zM74.914 503.713l-74.914 79.601c281.74 288.959 742.449 288.846 1024.076 0l-74.914-79.601c-237.857 248.176-636.39 248.252-874.248 0zM616.887 150.574l74.99 79.676c-96.345 102.392-250.86 111.88-351.816 8.315l-0.227-0.189-7.635-8.126 74.99-79.676c69.962-72.608 142.231-73.062 209.699 0z" />
<glyph unicode="&#xe62e;" d="M47.7 592.839c26.345 0 47.7-21.998 47.7-49.136 0-5.859-0.983-11.415-2.797-16.631l77.068-50.837c33.413-23.585 64.217-6.426 62.781 34.055l-2.079 120.157c-23.51 5.821-40.934 27.592-40.934 53.483 0 30.427 23.963 55.108 53.521 55.108 29.52 0 53.483-24.682 53.483-55.108 0-13.872-5.027-26.496-13.229-36.21l83.721-110.405c23.926-35.076 58.926-30.162 69.244 12.095l48.040 183.77c-18.747 10.243-31.485 30.578-31.485 53.861 0 33.715 26.571 61.042 59.304 61.042s59.266-27.327 59.266-61.042c0-23.359-12.775-43.656-31.523-53.899l48.040-183.732c10.281-42.257 45.281-47.171 69.207-12.095l83.758 110.405c-8.24 9.714-13.267 22.338-13.267 36.21 0 30.427 23.963 55.108 53.483 55.108 29.557 0 53.521-24.682 53.521-55.108 0-25.891-17.424-47.662-40.934-53.483l-2.079-120.157c-1.436-40.481 29.368-57.641 62.781-34.055l77.068 50.837c-1.814 5.216-2.797 10.772-2.797 16.631 0 27.138 21.393 49.136 47.7 49.136 26.345 0 47.738-21.998 47.738-49.136 0-27.101-21.393-49.098-47.738-49.098-6.085 0-11.906 1.134-17.235 3.288-48.229-87.085-90.638-167.97-120.422-314.812-217.712 0-435.536 0-653.248 0-29.784 146.842-72.193 227.728-120.384 314.812-5.367-2.154-11.188-3.288-17.273-3.288-26.345 0-47.738 21.998-47.738 49.098 0 27.138 21.393 49.136 47.738 49.136zM165.514 171.325h692.897c4.12 0 7.446-3.477 7.446-7.711v-107.873c0-4.233-3.364-7.711-7.446-7.711h-692.897c-4.082 0-7.446 3.44-7.446 7.711v107.873c0 4.271 3.326 7.711 7.446 7.711z" />
<glyph unicode="&#xe62f;" d="M875.608 16.017h-191.783l-76.199 195.525h-348.792l-71.928-195.525h-186.907l339.91 860.301h186.264l349.435-860.301zM829.685 553.643v135.389h-136.372v56.582h136.372v134.444h58.094v-134.444h136.296v-56.582h-136.296v-135.389h-58.094zM551.158 356.342l-120.233 319.272-117.851-319.272h238.084z" />
<glyph unicode="&#xe630;" d="M1024.038 960c-335.109 0-688.891 0-1024 0v-112.446h129.795l127.036-245.87c52.387 41.085 114.79 70 183.052 82.020v163.851h144.158v-163.926c67.959-11.944 130.136-40.519 182.296-81.377l127.376 245.303h130.287v112.446zM511.962 660.155c-199.644 0-361.643-162.225-361.643-362.059 0-199.985 161.999-362.134 361.643-362.134 199.72 0 361.756 162.15 361.756 362.134 0 199.833-162.036 362.059-361.756 362.059zM512.038 499.215l52.727-149.601 158.597-4.044-125.827-96.496 45.13-152.171-130.627 89.882-130.627-89.882 45.13 152.171-125.827 96.496 158.597 4.044 52.727 149.601z" />
<glyph unicode="&#xe631;" d="M844.653 960.038h-665.419c-45.81 0-83.267-37.192-83.267-82.662v-637.827c0-71.474 343.274-302.528 410.552-303.511 67.317-1.021 421.476 229.58 421.476 303.511v637.94c-0.189 45.319-37.457 82.549-83.343 82.549zM774.199 625.911h-70.605v288.43h70.416v-288.43h0.189zM734.814 279.463l-78.542-1.021 45.319-63.915-75.141 23.056 23.245-74.423-64.142 44.903-1.21-78.089-47.020 62.516-25.437-73.931-25.286 73.931-47.057-62.516-1.21 78.089-64.217-44.903 23.132 74.423-74.838-23.056 45.13 63.839-78.505 1.096 62.781 46.793-74.423 25.173 74.498 25.211-62.857 46.868 78.429 1.021-45.054 63.764 74.952-22.905-23.245 74.423 64.217-44.979 1.021 78.164 47.171-62.365 25.324 73.742 25.437-73.742 47.095 62.365 1.096-78.164 64.217 44.979-23.245-74.498 75.141 22.981-45.319-63.764 78.542-1.021-62.819-46.868 74.309-25.211-74.309-25.211 62.819-46.755zM249.726 914.341h70.378v-288.43h-70.378v288.43zM476.622 914.341h70.605v-288.43h-70.605v288.43z" />
<glyph unicode="&#xe632;" d="M451.487 960c272.026 0 492.761-218.883 492.761-488.793 0-75.708-17.311-147.295-48.305-211.173l80.092-52.651-91.847-137.393-84.363 55.486c-89.163-88.445-212.382-143.138-348.338-143.138-76.804 0-149.412 17.5-214.196 48.532v-1.058c0-51.782-42.408-93.85-94.568-93.85-52.273 0-94.682 42.068-94.682 93.85 0 40.745 26.118 75.367 62.668 88.408-12.397 11.755-24.266 24.228-35.378 37.268l50.421 76.842c148.467-101.334 346.902-96.496 481.233 19.919l-324.451 213.327-61.609-92.905-171.032 110.292 197.452 298.144c43.542-2.23 94.455 7.030 126.053 50.951l106.399-68.564-106.059-160.184 330.99-217.56c59.871 139.509 32.090 310.806-83.985 432.172-77.975 81.642-180.897 124.882-283.63 128.775 36.663 8.731 74.914 13.305 114.374 13.305z" />
<glyph unicode="&#xe633;" d="M521.563 870.912c40.254 0 72.911-32.090 72.911-71.626 0-39.574-32.657-71.663-72.911-71.663-40.33 0-72.986 32.090-72.986 71.663 0 39.536 32.657 71.626 72.986 71.626zM521.563 960.038c231.394 0 437.804-153.419 501.228-370.374 9.789-34.131-44.223-58.51-60.627 0-61.761 184.904-240.881 313.489-440.601 313.489-254.261 0-463.544-205.503-463.544-455.115 0-249.574 209.358-455.115 463.544-455.115 199.682 0 378.841 128.586 440.601 313.489 17.122 58.51 70.832 35.076 60.627 0-63.424-216.956-269.834-370.374-501.228-370.374-286.087 0-521.525 231.167-521.525 512s235.438 512 521.525 512zM593.906 556.402l1.701-7.748h-148.24l1.776 7.748c6.274 26.949-39.611 37.003-45.659 10.054l-108.591-477.416c-6.010-27.025 39.574-36.928 45.735-10.016l8.769 38.629h344.256l8.731-38.629c6.010-26.912 51.895-17.009 45.697 10.016l-108.516 477.416c-6.010 26.949-51.933 16.933-45.659-10.054zM403.22 354.339l34.584 151.944h167.441l34.547-151.944h-236.572zM359.073 159.986l34.509 151.982h255.849l34.547-151.982h-324.904zM588.199 714.432h210.152l48.343-82.133h-189.817c-26.156 0.076-34.811-33.035-57.187-33.035h-156.367c-23.661 0.454-32.884 33.11-57.111 33.035h-189.893l48.343 82.133h205.73c31.939 0 57.036-21.696 71.172-40.292 14.741 18.521 34.698 40.292 66.636 40.292z" />
<glyph unicode="&#xe634;" d="M512.038 960.038c265.109 0 480.024-212.080 480.024-473.674 0-131.080-53.974-249.688-141.135-335.45l26.193-148.656h-31.296l-2.268-16.215-32.052-9.563-1.55-16.177-30.54-5.859 0.794-15.497-70.87-2.91-2.23 20.637-31.372 9.563 0.756-22.111-29.066-4.422c-89.844 0-179.763 0-269.607 0l-29.028 4.422 0.756 22.111-31.296-9.563-2.306-20.637-70.87 2.91 0.794 15.497-30.578 5.859-1.436 16.177-32.128 9.563-2.192 16.215h-31.372l26.004 147.636c-87.765 85.837-142.155 204.898-142.155 336.47 0 261.594 214.915 473.674 480.024 473.674zM522.47 182.929c6.577-0.605 12.964-1.852 19.125-3.629l5.783 13.683 19.277-7.9-5.783-13.758c5.783-3.062 11.188-6.614 16.139-10.659l10.697 10.47 14.741-14.552-10.583-10.508c4.082-4.951 7.673-10.281 10.81-15.988l13.909 5.707 8.013-19.012-13.985-5.707c1.89-6.048 3.175-12.397 3.818-18.861h15.081v-20.637h-15.081c-0.643-6.463-1.928-12.775-3.818-18.823l13.985-5.67-8.013-19.050-13.909 5.67c-3.137-5.632-6.728-10.961-10.81-15.913l10.583-10.508-14.741-14.59-10.697 10.508c-4.951-4.082-10.356-7.635-16.139-10.734l5.783-13.72-19.277-7.862-5.783 13.758c-6.161-1.814-12.549-3.099-19.125-3.78v-14.892h-20.864v14.892c-6.577 0.68-12.964 1.965-19.125 3.78l-5.783-13.758-19.277 7.862 5.783 13.72c-5.783 3.099-11.188 6.652-16.139 10.734l-10.697-10.508-14.741 14.59 10.583 10.508c-4.082 4.951-7.673 10.281-10.81 15.913l-13.909-5.67-8.013 19.050 13.985 5.67c-1.89 6.048-3.175 12.36-3.818 18.823h-15.081v20.637h15.081c0.643 6.463 1.928 12.813 3.818 18.861l-13.985 5.707 8.013 19.012 13.909-5.707c3.137 5.707 6.728 11.037 10.81 15.988l-10.583 10.508 14.741 14.552 10.697-10.47c4.951 4.044 10.356 7.597 16.139 10.659l-5.783 13.758 19.277 7.9 5.783-13.683c6.161 1.776 12.549 3.024 19.125 3.629v14.892h20.864v-14.892zM736.553 218.496h-449.030c32.241-26.458 69.433-47.209 109.838-60.967-14.665-21.696-23.207-47.662-23.207-75.632 0-75.141 61.723-136.032 137.884-136.032s137.884 60.891 137.884 136.032c0 27.97-8.542 53.937-23.207 75.632 40.405 13.758 77.598 34.509 109.838 60.967zM455.455 577.455l-1.739-33.715 31.22-13.607-32.997-8.731-3.515-33.375-18.596 28.159-33.375-6.992 21.507 26.118-17.047 29.142 31.787-12.057 22.754 25.060zM568.62 577.455l1.739-33.715-31.22-13.607 32.997-8.731 3.515-33.375 18.596 28.159 33.375-6.992-21.507 26.118 17.047 29.142-31.787-12.057-22.754 25.060zM332.161 686.046l11.339-31.712 34.093-0.832-27.101-20.448 9.676-32.279-28.008 19.012-28.121-19.012 9.638 32.279-26.949 20.448 34.055 0.832 11.377 31.712zM691.914 686.046l11.453-31.712 33.98-0.832-26.949-20.448 9.638-32.279-28.121 19.012-28.008-19.012 9.676 32.279-27.101 20.448 34.093 0.832 11.339 31.712zM512.038 809.038l25.74-71.852 77.106-1.928-61.156-46.339 21.922-73.062-63.613 43.278-63.613-43.278 21.922 73.062-61.156 46.339 77.106 1.928 25.74 71.852zM394.942 402.757h234.191v-36.814h18.294v-22.792h13.758v-40.216h150.168c33.564 53.256 52.954 116.151 52.954 183.429 0 191.972-157.765 347.658-352.269 347.658s-352.269-155.686-352.269-347.658c0-67.279 19.39-130.173 52.954-183.429h150.168v40.216h13.758v22.792h18.294v36.814z" />
<glyph unicode="&#xe635;" d="M94.72 650.252c10.205-78.731 35.265-197.112 96.609-311.108 33.299-62.025 77.068-121.442 126.696-175.605 52.803-57.565 112.446-109.347 172.96-151.831l21.053-14.703 21.053 14.703c60.513 42.484 120.157 94.266 172.96 151.831 49.628 54.163 93.397 113.58 126.696 175.605 61.345 113.996 86.404 232.377 96.609 311.108 2.873-2.079 5.821-4.536 8.693-7.559 29.898-31.22 16.782-124.995 16.782-124.995s30.578 17.424 36.701-35.68c6.123-53.256-41.010-140.757-41.010-140.757s47.133 9.298 33.11-56.658c-13.985-65.88-156.027-172.997-156.027-172.997s151.491-40.745 43.996-102.355c-170.427-97.706-548.701-97.706-719.128 0-107.495 61.609 43.996 102.355 43.996 102.355s-142.042 107.117-156.027 172.997c-14.023 65.956 33.11 56.658 33.11 56.658s-47.133 87.5-41.010 140.757c6.123 53.105 36.701 35.68 36.701 35.68s-13.116 93.775 16.782 124.995c2.873 3.024 5.821 5.481 8.693 7.559zM512.038 960l-249.952-96.307c0 0-3.515-53.407-42.333-83.343-38.893-29.86-94.984-37.192-94.984-37.192s-1.058-199.040 98.991-385.039c65.691-122.085 175.379-235.325 288.279-314.397 112.9 79.072 222.587 192.312 288.279 314.397 100.049 186 98.991 385.039 98.991 385.039s-56.091 7.333-94.984 37.192c-38.818 29.935-42.333 83.343-42.333 83.343l-249.952 96.307zM511.887 431.596c3.326-0.378 6.577-1.021 9.714-1.852l2.948 7.106 9.789-4.158-2.948-7.144c2.948-1.587 5.632-3.44 8.164-5.556l5.443 5.481 7.446-7.597-5.405-5.443c2.117-2.57 3.931-5.367 5.556-8.353l6.992 2.986 4.082-9.941-7.068-2.986c0.945-3.099 1.587-6.463 1.965-9.789h7.635v-10.734h-7.635c-0.378-3.364-1.021-6.69-1.965-9.789l7.068-2.986-4.082-9.903-6.992 2.948c-1.625-2.948-3.44-5.67-5.556-8.278l5.405-5.443-7.446-7.635-5.443 5.443c-2.532-2.079-5.216-3.893-8.164-5.518l2.948-7.219-9.789-4.044-2.948 7.144c-3.137-0.945-6.388-1.587-9.714-1.965v-7.748h-10.545v7.748c-3.326 0.378-6.614 1.021-9.714 1.965l-2.948-7.144-9.827 4.044 2.986 7.219c-2.986 1.625-5.67 3.44-8.202 5.518l-5.405-5.443-7.446 7.635 5.367 5.443c-2.117 2.608-3.893 5.329-5.518 8.278l-7.030-2.948-4.044 9.903 7.068 2.986c-0.945 3.099-1.587 6.426-1.965 9.789h-7.635v10.734h7.635c0.378 3.326 1.021 6.69 1.965 9.789l-7.068 2.986 4.044 9.941 7.030-2.986c1.625 2.986 3.402 5.783 5.518 8.353l-5.367 5.443 7.446 7.597 5.405-5.481c2.532 2.117 5.216 3.969 8.202 5.556l-2.986 7.144 9.827 4.158 2.948-7.106c3.099 0.832 6.388 1.474 9.714 1.852v7.748h10.545v-7.748zM506.595 836.479c134.444 0 243.376-110.481 243.376-246.664 0-68.262-27.365-129.984-71.55-174.661l13.267-77.409h-15.875l-1.134-8.391-16.253-5.027-0.794-8.429-15.459-3.062 0.378-8.013-35.907-1.55-1.172 10.734-15.875 5.027 0.378-11.528-14.779-2.381c-45.508 0-91.091 0-136.599 0l-14.779 2.381 0.416 11.528-15.875-5.027-1.172-10.734-35.945 1.55 0.416 8.013-15.497 3.062-0.756 8.429-16.215 5.027-1.172 8.391h-15.875l13.191 76.879c-44.525 44.714-72.079 106.664-72.079 175.19 0 136.183 108.931 246.664 243.338 246.664zM620.402 450.306h-227.577c16.328-13.683 35.151-24.53 55.6-31.674-7.408-11.339-11.679-24.871-11.679-39.46 0-39.082 31.258-70.832 69.849-70.832 38.629 0 69.887 31.75 69.887 70.832 0 14.59-4.271 28.121-11.717 39.46 20.448 7.144 39.309 17.991 55.637 31.674zM506.595 750.868l13.040-37.495 39.12-0.945-30.994-24.152 11.075-38.062-32.241 22.603-32.203-22.603 11.075 38.062-30.994 24.152 39.12 0.945 13.002 37.495zM477.983 630.296l-0.945-17.613 15.799-7.106-16.744-4.498-1.701-17.424-9.449 14.665-16.933-3.629 10.923 13.569-8.693 15.194 16.139-6.274 11.604 13.116zM535.245 630.296l11.604-13.116 16.139 6.274-8.693-15.194 10.886-13.569-16.933 3.629-9.411-14.665-1.701 17.424-16.782 4.498 15.837 7.106-0.945 17.613zM415.428 686.84l5.745-16.593 17.235-0.416-13.758-10.583 4.951-16.82-14.174 9.827-14.25-9.827 4.876 16.82-13.683 10.583 17.273 0.416 5.783 16.593zM597.799 686.84l5.783-16.593 17.235-0.416-13.645-10.583 4.838-16.82-14.212 9.827-14.212-9.827 4.951 16.82-13.758 10.583 17.235 0.416 5.783 16.593zM447.216 546.31h118.759v-19.201h9.223v-11.906h7.030v-20.902h76.161c17.009 27.743 26.836 60.513 26.836 95.513 0 99.936-80.017 181.048-178.629 181.048s-178.591-81.113-178.591-181.048c0-35 9.789-67.77 26.836-95.513h76.161v20.902h6.992v11.906h9.223v19.201z" />
<glyph unicode="&#xe636;" d="M825.452 710.728c27.743-30.087 26.382-88.672 19.012-137.619 0 0 11.604 2.457 15.043-5.518 3.44-7.937-3.137-29.671-7.824-41.879-4.725-12.284-24.757-33.375-24.757-33.375s-4.006-29.104-9.638-40.783c-5.632-11.642-12.246-17.727-12.246-17.727l2.306-12.057 9.071-2.608c3.213-10.621 7.219-15.988 14.703-23.396 48.532-23.737 149.601-54.541 181.88-98.197 11.604-15.686 10.999-50.686 10.999-50.686 1.701-29.633-72.646-48.569-168.084-56.809 0.643 2.684 0.869 5.481 0.832 8.353v0c0 0.113 0.832 45.886-16.215 68.866-30.124 40.821-102.884 70.718-161.961 94.984-18.483 7.635-35.718 14.703-49.439 21.204l-3.553 4.006c6.652 2.873 12.738 5.594 18.256 8.278 7.484 7.408 11.528 12.775 14.627 23.396l9.147 2.608 2.306 12.057c0 0-6.69 6.085-12.284 17.727-5.027 10.583-8.92 35.529-9.525 40.027 4.498 6.274 8.504 12.851 10.621 18.407 3.402 8.807 7.673 21.809 9.714 33.224v0.076c2.003 10.659 2.23 21.015-1.058 28.65v0c-3.629 8.24-8.429 12.813-13.305 15.308 2.608 23.737 3.78 48.645 1.739 71.852-1.474 16.782-4.687 32.77-10.167 47.133l3.78 4.498c43.013 46.793 133.084 46.793 176.021 0zM612.427 727.888c31.636-34.358 30.124-101.145 21.733-157.047 0 0 13.229 2.835 17.084-6.312 3.969-9.034-3.515-33.866-8.882-47.776-5.443-14.061-28.272-38.137-28.272-38.137s-4.573-33.224-10.999-46.566c-6.35-13.229-13.947-20.146-13.947-20.146l2.57-13.834 10.432-2.948c3.629-12.208 8.202-18.218 16.706-26.723 55.562-27.101 170.805-62.252 207.657-112.106 13.229-17.878 12.511-57.867 12.511-57.867 5.367-93.926-659.409-93.926-654.079 0 0 0-0.68 39.989 12.511 57.867 36.852 49.854 152.096 85.006 207.695 112.106 8.504 8.504 13.040 14.514 16.706 26.723l10.394 2.948 2.57 13.834c0 0-7.559 6.917-13.947 20.146-6.426 13.342-10.999 46.566-10.999 46.566s-22.829 24.077-28.234 38.137c-5.405 13.909-12.889 38.742-8.92 47.776 3.855 9.147 17.122 6.312 17.122 6.312-8.353 55.902-9.865 122.69 21.733 157.047 49.023 53.445 151.793 53.445 200.854 0zM198.511 711.219c-27.668-30.124-26.382-88.672-19.012-137.657 0 0-11.604 2.532-15.005-5.556-3.477-7.9 3.099-29.595 7.786-41.841 4.725-12.284 24.757-33.375 24.757-33.375s4.006-29.104 9.676-40.783c5.594-11.642 12.208-17.727 12.208-17.727l-2.306-12.019-9.034-2.608c-3.213-10.659-7.257-15.988-14.741-23.396-48.532-23.699-149.601-54.579-181.88-98.273-11.566-15.572-10.999-50.648-10.999-50.648-1.701-29.557 72.646-48.494 168.122-56.847-0.643 2.759-0.907 5.556-0.832 8.391h-0.038c0 0.113-0.832 45.886 16.215 68.904 30.124 40.821 102.884 70.681 161.961 94.984 18.558 7.635 35.718 14.627 49.439 21.204l3.553 3.931c-6.614 2.91-12.738 5.67-18.218 8.353-7.484 7.408-11.566 12.738-14.665 23.396l-9.147 2.608-2.306 12.019c0 0 6.69 6.085 12.322 17.727 4.989 10.659 8.882 35.492 9.487 40.065-4.498 6.312-8.504 12.813-10.583 18.369-3.402 8.882-7.711 21.809-9.752 33.224v0.076c-2.003 10.659-2.23 21.053 1.058 28.65h0.076c3.591 8.24 8.391 12.851 13.267 15.346-2.646 23.737-3.818 48.607-1.739 71.852 1.436 16.744 4.687 32.732 10.13 47.133l-3.742 4.498c-43.051 46.755-133.084 46.755-176.059 0z" />
<glyph unicode="&#xe637;" d="M669.312 895.972c49.476-55.033 47.095-161.923 33.98-251.427 0 0 20.713 4.498 26.798-10.092 6.161-14.514-5.518-54.239-13.947-76.539-8.429-22.451-44.185-61.005-44.185-61.005s-7.219-53.143-17.235-74.46c-10.016-21.28-21.922-32.317-21.922-32.317l4.12-22.149 16.253-4.762c5.67-19.466 12.851-29.066 26.193-42.711 86.896-43.353 267.377-99.633 325.093-179.423 20.713-28.612 19.617-92.603 19.617-92.603 3.969-71.55-211.664-109.045-456.778-112.484l-17.991 241.221 25.173 26.949c8.656 9.185 8.656 24.228 0 33.413l-46.793 50.081c-8.58 9.26-22.603 9.26-31.22 0l-46.755-50.081c-8.656-9.185-8.656-24.228 0-33.413l25.097-26.874-15.497-241.297c-245.039 3.44-463.279 40.897-459.273 112.484 0 0-1.058 63.991 19.617 92.603 57.754 79.79 238.198 136.070 325.093 179.423 13.342 13.645 20.524 23.245 26.193 42.711l16.291 4.762 4.082 22.149c0 0-11.868 11.037-21.922 32.317-9.978 21.318-17.235 74.46-17.235 74.46s-35.756 38.553-44.185 61.005c-8.429 22.3-20.070 62.025-13.947 76.539 6.123 14.59 26.798 10.092 26.798 10.092-13.116 89.504-15.497 196.394 33.98 251.427 76.804 85.459 237.706 85.459 314.51 0z" />
<glyph unicode="&#xe638;" d="M335.261 864.411c-49.174-104.698-19.579-193.068-19.579-193.068s-32.128-14.665-24.946-61.95c7.144-47.322 56.96-102.014 56.96-102.014s2.646-38.062 11.566-56.242c8.92-18.18 24.908-50.081 24.908-50.081l-4.422-40.027-22.225-1.852c0 0-8.882-28.234-34.736-39.158s-197.528-67.354-257.21-120.195c-59.644-52.803-74.801-139.32-60.551-166.648 67.506-129.493 946.591-129.493 1014.059 0 14.287 27.327-0.869 113.845-60.551 166.648-59.682 52.84-231.356 109.272-257.21 120.195-25.815 10.923-34.698 39.158-34.698 39.158l-22.263 1.852-4.384 40.027c0 0 15.95 31.901 24.871 50.081 8.958 18.18 11.604 56.242 11.604 56.242s49.779 54.692 56.96 102.014c7.144 47.284-24.984 61.95-24.984 61.95s29.633 88.37-19.541 193.068c-59.871 127.565-293.797 127.565-353.63 0z" />
<glyph unicode="&#xe639;" d="M512.151 960.038c152.058 0 275.314-126.318 275.314-282.042 0-155.8-123.256-282.042-275.314-282.042-152.020 0-275.352 126.242-275.352 282.042 0 155.724 123.332 282.042 275.352 282.042zM0.038 53.776c-2.079 226.102 64.671 326.832 271.988 407.529 96.194-159.088 376.459-156.48 480.213 0 214.272-88.067 273.878-181.426 271.837-407.529-1.398-157.009-1022.677-157.009-1024.038 0z" />
<glyph unicode="&#xe63a;" d="M201.194 508.891h9.714v149.223c0 165.816 135.692 301.924 301.205 301.924 165.589 0 301.13-135.994 301.13-301.924v-149.223h9.676c31.485 0 57.149-25.74 57.149-57.263v-458.328c0-31.523-25.664-57.263-57.149-57.263h-621.725c-31.447 0-57.149 25.74-57.149 57.263v458.328c0 31.523 25.702 57.263 57.149 57.263zM324.451 508.891h375.212l0.076 149.223c0 103.64-84.212 188.192-187.625 188.192-103.602 0-187.701-84.439-187.701-188.192l0.038-149.223z" />
<glyph unicode="&#xe63b;" d="M598.858 522.045l-458.139 437.955-60.929-12.813-42.484-40.556-21.355-151.264 36.89-35.265 64.746-5.178 21.053-20.221-7.862-78.58 65.389-62.516 72.608 5.481 19.428-19.314-8.958-49.665 32.846-31.069 52.878 6.879 17.122-16.782-20.184-91.204 33.035-30.805c-34.32-103.489-8.693-221.227 77.144-303.284 122.614-117.171 321.389-117.133 444.003 0 122.538 117.133 122.576 307.253 0 424.386-85.837 82.058-208.98 106.626-317.231 73.818zM904.901 360.84c57.867-91.507 45.659-212.118-36.814-291.114-82.625-78.883-208.829-90.6-304.532-35.265l341.346 326.378zM100.389 850.237l423.63-404.921-14.287-13.569-423.63 404.883 14.287 13.607zM153.797 901.377l423.63-404.921-14.212-13.683-423.63 404.996 14.212 13.607z" />
<glyph unicode="&#xe63c;" d="M239.898 959.206l134.936 0.794 134.671-146.502-33.753-174.887 330.536-347.998c54.579 6.35 110.254-12.662 149.185-50.988 70.151-69.055 70.151-182.825 0-251.88-70.114-69.018-185.697-69.018-255.849 0-42.144 41.501-60.891 101.939-49.779 159.315-111.464 117.247-222.739 235.287-334.618 351.929l-168.159-21.015-124.693 128.208-6.388 145.67 29.822 27.554 128.397-135.767 129.833 27.97 32.657 120.989-129.077 136.561 32.279 30.049zM897.039 182.097c-37.986 37.381-100.956 37.381-138.98 0-37.986-37.419-37.986-99.406 0-136.788 38.024-37.419 100.994-37.419 138.98 0 37.986 37.381 37.986 99.369 0 136.788z" />
<glyph unicode="&#xe63d;" d="M512.038 960.038l-282.118-106.437c0 0-4.006-59.908-48.418-93.397-44.374-33.488-108.516-41.615-108.516-41.615s-41.237-307.064 53.181-515.44c63.272-139.849 245.152-227.161 382.734-266.281l3.137-0.832 3.137 0.832c137.582 39.12 319.461 126.431 382.734 266.281 94.417 208.376 53.181 515.44 53.181 515.44s-64.142 8.126-108.516 41.615c-44.412 33.488-48.418 93.397-48.418 93.397l-282.118 106.437zM300.071 761.943l211.966 79.979 7.673-2.873 218.392-82.436v-14.854c0-0.076 2.23-32.317 26.42-50.497h0.113c27.327-20.675 65.313-25.664 65.351-25.664h19.843l1.776-19.692c0-0.567 30.653-227.463-40.254-384.057v-0.038c-21.847-48.154-61.194-88.219-107.382-120.308-57.565-40.103-126.016-68.035-183.694-84.439h-0.227l-2.306-0.605-5.707-1.587-5.707 1.587-2.306 0.605h-0.227c-57.678 16.404-126.129 44.336-183.694 84.439-46.188 32.090-85.535 72.155-107.382 120.308v0.038c-70.907 156.594-40.254 383.49-40.254 384.057l1.814 19.692h19.806c0.038 0 38.024 4.989 65.351 25.664h0.113c24.19 18.18 26.42 50.421 26.42 50.497v14.854l14.098 5.329zM512.038 795.734l-185.093-69.811c-4.158-18.483-14.741-48.947-41.161-68.904l0.076-0.038c-22.867-17.273-52.614-26.458-71.928-30.88-5.14-52.689-16.593-224.893 38.477-346.562 18.332-40.556 52.349-74.838 92.49-102.733 51.744-35.983 113.921-61.647 167.139-77.106 53.218 15.459 115.395 41.123 167.139 77.106 40.141 27.894 74.158 62.176 92.49 102.733 55.070 121.669 43.618 293.873 38.477 346.562-19.314 4.46-49.098 13.607-71.928 30.88l0.076 0.038c-26.42 19.957-37.003 50.421-41.161 68.904l-185.093 69.811z" />
<glyph unicode="&#xe63e;" d="M977.056 533.762l-106.134 3.629c-8.92 35.983-23.245 69.887-41.728 100.994l72.495 77.635c17.689 18.823 18.861 47.473 1.55 64.935-23.585 23.661-34.282 34.358-58.056 57.981-17.349 17.462-46.037 16.102-65.011-1.625l-77.522-72.419c-30.956 18.634-65.011 32.959-101.070 41.917l-3.742 106.172c-0.643 25.891-19.919 47.095-44.79 47.095-33.299 0-48.532 0-81.944 0-24.682 0-44.071-21.204-44.865-47.095l-3.591-106.172c-36.021-9.034-69.887-23.283-100.881-41.841l-77.673 72.457c-18.936 17.765-47.473 19.163-64.973 1.625-23.737-23.585-34.433-34.433-58.056-58.094-17.5-17.462-16.139-45.999 1.587-64.935l72.457-77.711c-18.596-30.956-32.884-64.784-41.917-100.918l-106.021-3.629c-25.929-0.832-47.133-20.108-47.133-44.865 0-33.337 0-48.569 0-81.906 0-24.719 21.204-44.071 47.133-44.941l106.021-3.515c8.996-36.021 23.207-70.076 41.917-101.032l-72.457-77.598c-17.576-18.936-19.088-47.549-1.474-65.011 23.623-23.623 34.32-34.32 57.943-58.056 17.5-17.349 46.15-16.177 64.973 1.663l77.522 72.419c31.145-18.558 65.011-32.884 101.032-41.804l3.591-105.983c0.945-25.853 20.184-47.095 44.865-47.095 33.299 0 48.569 0 81.944 0 24.682 0 44.034 21.242 44.79 47.095l3.629 105.983c35.983 8.92 69.887 23.207 100.994 41.917l77.522-72.495c19.163-17.689 47.7-18.936 65.2-1.55 23.623 23.585 34.32 34.282 58.056 58.056 17.311 17.424 15.988 45.924-1.701 64.898l-72.344 77.56c18.483 30.956 32.808 65.011 41.728 101.032l105.983 3.515c25.929 0.869 47.133 20.221 47.133 44.941 0 33.299 0 48.494 0 81.906 0.076 24.757-21.166 44.034-46.982 44.865zM512.038 664.842c119.704 0 216.804-97.101 216.804-216.767 0-119.704-97.101-216.804-216.804-216.804-119.666 0-216.729 97.101-216.729 216.804 0 119.666 97.063 216.767 216.729 216.767z" />
<glyph unicode="&#xe63f;" d="M512.038 960.038l-282.118-106.437c0 0-4.006-59.908-48.418-93.397-44.374-33.526-108.516-41.615-108.516-41.615s-41.237-307.064 53.181-515.44c63.272-139.812 245.152-227.161 382.734-266.281l3.137-0.832 3.137 0.832c137.582 39.12 319.461 126.469 382.734 266.281 94.417 208.376 53.181 515.44 53.181 515.44s-64.142 8.089-108.516 41.615c-44.412 33.488-48.418 93.397-48.418 93.397l-282.118 106.437zM371.962 270.051l-145.406 146.086c-42.862 43.807 43.127 129.569 87.311 83.267l111.993-111.955 317.042 258.91c32.959 27.592 87.16-28.801 57.867-57.452l-321.843-319.537c-38.742-38.515-72.646-33.828-106.966 0.68z" />
<glyph unicode="&#xe640;" d="M537.437 36.503v-100.54h-50.951v100.54zM537.437 960v-100.54h-50.951v100.54zM739.803 104.386l50.27-87.047-44.185-25.475-50.27 87.009zM278.036 904.174l50.27-87.085-44.147-25.475-50.27 87.085zM881.165 264.306l87.009-50.195-25.551-44.185-87.085 50.232zM81.302 726.074l87.085-50.27-25.513-44.147-87.085 50.27zM923.497 473.513l100.503 0.038-0.038-51.026-100.503-0.038zM-0.038 473.513h100.54v-50.988h-100.54zM855.652 675.879l86.971 50.27 25.513-44.223-87.047-50.27zM55.789 214.111l87.085 50.27 25.513-44.185-87.085-50.27zM695.656 817.202l50.232 87.009 44.147-25.513-50.232-87.085zM233.889 17.339l50.27 87.085 44.147-25.475-50.27-87.085zM730.543 666.467c-55.902 55.902-133.235 90.562-218.543 90.562-85.346 0-162.641-34.622-218.505-90.486-55.902-55.902-90.562-133.235-90.562-218.581 0-85.308 34.66-162.641 90.562-218.505 55.864-55.902 133.159-90.524 218.505-90.524s162.754 34.622 218.656 90.411l-0.113 0.113c55.864 55.864 90.486 133.159 90.486 218.505s-34.622 162.641-90.486 218.505z" />
<glyph unicode="&#xe641;" d="M404.165 960.076l52.5-151.642 157.274-50.573-157.274-50.648-52.5-151.642-52.462 151.642-157.236 50.648 157.236 50.573 52.462 151.642zM765.241 864.94c154.628-85.951 258.797-246.966 258.797-431.379 0-274.71-231.054-497.561-515.931-497.561-254.186 0-465.472 177.382-508.069 410.704 86.177-93.548 211.891-152.511 351.816-152.511 259.818 0 470.612 203.273 470.612 453.83 0 78.58-20.751 152.474-57.225 216.918zM505.99 571.294l17.727-51.177 53.067-17.009-53.067-17.084-17.727-51.177-17.689 51.177-53.029 17.084 53.029 17.009 17.689 51.177zM202.215 591.44l26.118-75.519 78.316-25.097-78.316-25.173-26.118-75.519-26.156 75.519-78.164 25.173 78.164 25.097 26.156 75.519z" />
<glyph unicode="&#xe642;" d="M1024.113 960.076l-911.516-416.146 350.984-185.017-463.62-422.874 911.516 416.222-351.060 184.979z" />
<glyph unicode="&#xe643;" d="M257.361 570.349h31.939c5.745 154.212 130.891 277.658 284.272 277.658 157.009 0 284.461-129.342 284.461-288.695l-0.151-5.896c97.101-37.381 166.156-132.592 166.156-244.245 0-144.272-115.168-261.216-257.323-261.216-312.922 0-196.432 0-509.354 0-142.155 0-257.323 116.944-257.323 261.216 0 144.234 115.168 261.103 257.323 261.178z" />
<glyph unicode="&#xe644;" d="M125.033 806.279l27.743 27.819c7.711 7.673 20.184 7.597 27.894-0.113l103.451-103.451 37.344 141.512c2.759 10.432 13.645 16.706 24.077 13.796l38.137-10.356c10.545-2.797 16.82-13.683 14.098-24.152l-48.947-185.471 142.609-142.609 51.177 193.862-136.448 136.485c-7.786 7.711-7.862 20.221-0.189 27.894l27.781 27.743c7.597 7.635 20.184 7.522 27.894-0.113l104.131-104.169 37.155 140.492c2.721 10.508 13.531 16.744 24.039 13.909l38.137-10.356c10.545-2.873 16.858-13.758 14.061-24.228l-36.89-139.812 140.038 36.928c10.47 2.797 21.469-3.515 24.266-14.023l10.319-38.137c2.986-10.545-3.326-21.393-13.834-24.152l-183.996-48.569-51.177-193.786 192.463 50.724 48.947 185.471c2.721 10.508 13.569 16.782 24.115 13.834l38.137-10.356c10.508-2.797 16.82-13.796 13.985-24.228l-37.268-141.437 140.53 37.041c10.47 2.835 21.318-3.477 24.266-14.023l10.281-38.1c2.948-10.545-3.326-21.355-13.834-24.077l-139.774-36.89 102.997-103.186c7.711-7.673 7.9-20.259 0.189-27.894l-27.781-27.781c-7.597-7.711-20.146-7.559-27.894 0.189l-135.427 135.389-193.824-51.177 141.626-141.588 185.433 48.947c10.47 2.721 21.355-3.591 24.152-14.098l10.432-38.1c2.835-10.508-3.402-21.355-13.909-24.115l-141.399-37.344 103.451-103.413c7.711-7.711 7.748-20.259 0.113-27.894l-27.819-27.781c-7.635-7.635-20.184-7.635-27.894 0.113l-102.884 102.884-36.966-140.001c-2.835-10.508-13.645-16.782-24.152-13.872l-38.1 10.356c-10.508 2.797-16.858 13.683-14.098 24.228l48.569 183.959-141.626 141.664-50.837-192.35 135.503-135.465c7.711-7.748 7.824-20.259 0.189-27.894l-27.781-27.781c-7.635-7.635-20.297-7.559-27.97 0.151l-103.073 103.035-36.89-139.812c-2.797-10.47-13.607-16.706-24.115-13.796l-38.213 10.394c-10.47 2.797-16.744 13.72-13.985 24.19l37.079 140.53-141.475-37.306c-10.394-2.835-21.393 3.44-24.19 14.061l-10.356 38.062c-2.91 10.508 3.326 21.355 13.834 24.077l185.395 49.023 50.724 192.387-193.71-51.14-48.607-184.072c-2.684-10.508-13.569-16.744-24.077-13.834l-38.1 10.319c-10.583 2.873-16.895 13.834-14.023 24.19l36.852 140.114-139.774-36.928c-10.545-2.721-21.431 3.553-24.228 14.061l-10.394 38.213c-2.835 10.47 3.364 21.28 13.872 24.039l140.53 37.117-104.169 104.131c-7.635 7.673-7.748 20.259-0.113 27.894l27.781 27.781c7.635 7.635 20.146 7.559 27.856-0.151l136.485-136.485 192.425 50.762-142.646 142.684-184.072-48.607c-10.432-2.759-21.355 3.553-24.152 14.061l-10.356 38.137c-2.91 10.47 3.402 21.318 13.834 24.115l140.038 36.966-102.884 102.922c-7.711 7.711-7.748 20.184-0.113 27.819z" />
<glyph unicode="&#xe645;" d="M532.41 173.744h59.228l-4.876-21.922h-55.562zM432.21 173.744h58.926l1.361-21.922h-55.411zM512.038 960.076c-107.419-81.982-201.723-210.492-216.804-349.737-8.996-82.436 3.931-178.969 23.094-266.205-32.543-7.408-99.784-31.863-109.083-108.818-12.208-102.052 69.509-293.722 69.509-293.722l26.723 7.219 18.18 129.266 62.781 34.849c4.989-13.456 7.975-21.053 7.975-21.053h96.269l9.223-155.875h24.266l9.223 155.875h96.269c0 0 2.986 7.597 7.975 21.053l62.781-34.849 18.18-129.266 26.723-7.219c0 0 81.717 191.669 69.509 293.722-9.298 76.955-76.539 101.41-109.083 108.818 19.163 87.236 32.090 183.77 23.094 266.205-15.081 139.245-109.385 267.755-216.804 349.737zM512.038 791.463c41.766 0 75.556-34.282 75.556-76.653 0-42.182-33.791-76.539-75.556-76.539s-75.556 34.358-75.556 76.539c0 42.371 33.791 76.653 75.556 76.653zM512.038 572.050c12.586 0 22.829-10.394 22.829-23.094 0-12.775-10.243-23.094-22.829-23.094s-22.829 10.319-22.829 23.094c0 12.7 10.243 23.094 22.829 23.094zM512.038 486.931c12.586 0 22.829-10.356 22.829-23.094 0-12.662-10.243-23.056-22.829-23.056s-22.829 10.394-22.829 23.056c0 12.738 10.243 23.094 22.829 23.094zM512.038 401.85c12.586 0 22.829-10.356 22.829-23.132 0-12.738-10.243-23.056-22.829-23.056s-22.829 10.319-22.829 23.056c0 12.775 10.243 23.132 22.829 23.132z" />
<glyph unicode="&#xe646;" d="M586.158 824.459v-227.463l437.918-237.631v-122.878l-437.918 77.068c0-83.834 0-167.668 0-251.578 50.913-22.149 101.788-44.298 152.663-66.485 0-19.843 0-39.649 0-59.493-149.677 0-299.391 0-449.068 0 0 19.843 0 39.649 0 59.493 49.401 22.187 98.802 44.336 148.203 66.485v251.464l-437.955-76.955v122.878l437.955 237.593v226.367l-0.302 13.305c-1.096 45.886 33.413 123.445 74.385 123.445v0c40.972 0 75.367-77.635 74.385-123.445l-0.265-12.171z" />
<glyph unicode="&#xe647;" d="M193.408 120.526v-78.316c0-5.594-4.687-10.243-10.281-10.243h-116.642c-5.594 0-10.281 4.573-10.281 10.243v129.153c-25.211 27.592-40.594 64.104-40.594 104.093v105.567c0 16.404 0.113 39.044 6.388 54.125l48.683 114.677c-2.268-0.454-4.611-0.718-7.030-0.718h-29.746c-18.672 0-33.904 15.081-33.904 33.564v0c0 18.521 15.232 33.602 33.904 33.602h29.746c11.982 0 22.565-6.312 28.612-15.648l79.185 186.793c10.016 23.51 25.702 43.089 46.944 56.696 19.806 12.7 43.731 19.881 71.437 19.881 148.089 0 296.254 0 444.419 0 27.705 0 51.555-7.181 71.437-19.881 21.242-13.607 36.928-33.186 46.944-56.696l79.185-186.793c6.048 9.336 16.631 15.648 28.612 15.648h29.746c18.672 0 33.904-15.081 33.904-33.602v0c0-18.483-15.232-33.564-33.904-33.564h-29.746c-2.419 0-4.838 0.265-7.030 0.718l48.607-114.677c6.35-15.043 6.463-37.797 6.463-54.125v-105.567c0-39.914-15.383-76.501-40.594-104.093v-129.153c0-5.594-4.687-10.243-10.281-10.243h-116.642c-5.594 0-10.281 4.573-10.281 10.243v78.316h-637.26zM562.119 535.954h168.726c-4.384 13.191-11.868 24.984-21.544 34.584-16.026 15.913-38.251 25.815-62.819 25.815s-46.831-9.827-62.857-25.74c-9.676-9.6-17.122-21.469-21.507-34.66zM307.102 337.935c-20.184 0-36.701-16.404-36.701-36.285v-18.18c0-19.995 16.593-36.361 36.701-36.361h409.872c20.108 0 36.625 16.404 36.625 36.361v18.18c0 19.843-16.442 36.285-36.625 36.285h-409.872zM145.217 356.002c-30.805 0-55.713-24.908-55.713-55.448s24.908-55.297 55.713-55.297c30.805 0 55.713 24.757 55.713 55.297s-24.908 55.448-55.713 55.448zM878.859 356.002c-30.805 0-55.713-24.908-55.713-55.448s24.908-55.297 55.713-55.297c30.805 0 55.713 24.757 55.713 55.297s-24.908 55.448-55.713 55.448zM171.448 535.954h339.834c5.556 26.609 18.936 50.459 37.608 69.055l0.076 0.076c24.984 24.833 59.455 40.178 97.517 40.178 38.137 0 72.646-15.346 97.554-40.178 18.785-18.558 32.090-42.446 37.646-69.131h70.945c8.278 0 16.291-0.68 24.19-1.928l-94.984 223.835c-3.931 9.374-9.941 17.009-17.727 22.036-7.559 4.876-17.538 7.597-29.86 7.597-148.165 0-296.33 0-444.419 0-12.36 0-22.3-2.721-29.86-7.597-7.786-5.027-13.796-12.662-17.727-22.036l-94.984-223.835c7.862 1.247 15.913 1.928 24.19 1.928z" />
<glyph unicode="&#xe648;" d="M272.404 928.061h483.614c196.394 0 236.194-263.144 236.043-411.308v-360.471c0-26.874-11.15-51.329-29.028-68.791v-107.344c0-6.69-6.652-12.133-14.741-12.133h-118.494c-8.089 0-14.741 5.443-14.741 12.133v80.054h-607.74v-80.054c0-6.69-6.614-12.133-14.741-12.133h-118.381c-8.202 0-14.816 5.443-14.816 12.133v108.931c-16.895 17.424-27.365 41.123-27.365 67.203v360.396c0.491 145.406 47.435 411.384 240.39 411.384zM152.020 390.397c-26.345 0-47.738-21.393-47.738-47.813 0-26.269 21.393-47.662 47.738-47.662 26.307 0 47.7 21.393 47.7 47.662 0 26.42-21.393 47.813-47.7 47.813zM872.056 390.397c-26.307 0-47.7-21.393-47.7-47.813 0-26.269 21.393-47.662 47.7-47.662 26.345 0 47.738 21.393 47.738 47.662 0 26.42-21.393 47.813-47.738 47.813zM152.020 240.229c-26.345 0-47.738-21.318-47.738-47.738 0-26.269 21.393-47.662 47.738-47.662 26.307 0 47.7 21.393 47.7 47.662 0 26.42-21.393 47.738-47.7 47.738zM872.056 240.229c-26.307 0-47.7-21.318-47.7-47.738 0-26.269 21.393-47.662 47.7-47.662 26.345 0 47.738 21.393 47.738 47.662 0 26.42-21.393 47.738-47.738 47.738zM759.193 451.099c-16.631 41.161-57.641 69.018-102.355 69.018-44.79 0-85.762-27.894-102.468-69.018h204.823zM656.839 566.229c70.189 0 132.517-47.851 151-115.13h19.239c36.701 0 66.788 30.011 66.788 66.712 2.495 70.378-25.626 308.576-131.156 308.576h-499.187c-105.189 0-133.651-243.792-133.31-308.576 0-36.701 30.087-66.712 66.788-66.712h308.765c18.369 67.317 80.999 115.13 151.075 115.13z" />
<glyph unicode="&#xe649;" d="M0.038 416.855l514.759 479.154 509.279-479.154h-120.27l-389.159 371.508-390.936-371.508h-123.672zM511.055 736.317l401.746-381.713h-105.908v-354.613h-589.9v354.613h-106.928l400.99 381.713z" />
<glyph unicode="&#xe64a;" d="M169.558 230.213c15.875 69.925 86.744 337.037 244.623 337.037 165.854 0 254.904-287.069 269.116-337.037h-513.739zM78.353 896.009h867.369c22.792 0 43.164-10.281 57.565-26.912 12.775-14.816 20.788-34.773 20.788-56.356v-729.523c0-21.544-8.013-41.539-20.788-56.356-14.401-16.631-34.773-26.912-57.565-26.912h-867.369c-22.829 0-43.164 10.281-57.565 26.912-12.775 14.816-20.788 34.811-20.788 56.356v729.523c0 21.582 8.013 41.539 20.788 56.356 14.401 16.631 34.736 26.912 57.565 26.912zM937.558 810.512h-851.040v-725.062h851.040v725.062zM594.662 469.658c23.623 26.382 52.425 44.336 87.047 44.336 118.985 0 182.749-205.843 192.992-241.675h-181.275c-19.73 55.033-52.614 132.819-98.764 197.339zM586.082 718.854c33.791 0 61.156-27.101 61.156-60.475 0-33.337-27.365-60.438-61.156-60.438-33.753 0-61.194 27.101-61.194 60.438 0 33.375 27.441 60.475 61.194 60.475z" />
<glyph unicode="&#xe64b;" d="M606.304 960h31.825c4.914 0 8.882-4.006 8.882-8.656v-229.126h146.691c21.129 0 38.326-16.782 38.326-37.344v0.038c0-20.599-17.198-37.381-38.326-37.381h-18.294c-3.251-132.517-45.961-232.755-110.33-348.414-28.461-51.102-34.584-68.564-72.571-69.396l0.038-96.95-37.646-23.85v-131.118c0-22.829-19.239-41.841-42.862-41.841v0c-23.623 0-42.862 18.823-42.862 41.841v131.118l-37.722 21.658 0.113 99.142c-37.986 0.832-44.109 18.294-72.571 69.396-64.369 115.659-107.079 215.897-110.33 348.414h-18.294c-21.129 0-38.326 16.782-38.326 37.381v-0.038c0 20.562 17.198 37.344 38.326 37.344h146.615v229.126c0 4.725 4.006 8.656 8.882 8.656h30.616c4.914 0 8.882-4.044 8.882-8.656v-229.126h172.015v229.126c0 4.725 4.006 8.656 8.92 8.656z" />
<glyph unicode="&#xe64c;" d="M89.352 960.038c-16.404 0-29.784-13.569-29.784-30.162v-6.728c0-16.593 13.38-30.162 29.784-30.162h34.131v-254.904h-12.662l-110.783-112.22v-465.51h443.171v106.815h137.657v-106.815h443.171v465.51l-110.783 112.22h-12.662v254.904h34.131c16.404 0 29.784 13.569 29.784 30.162v6.728c0 16.593-13.38 30.162-29.784 30.162h-335.109c-16.366 0-29.784-13.569-29.784-30.162v-6.728c0-16.593 13.418-30.162 29.784-30.162h34.169v-241.75h-243.489v241.75h34.169c16.366 0 29.784 13.569 29.784 30.162v6.728c0 16.593-13.418 30.162-29.784 30.162h-335.109zM429.564 531.872h164.947v-75.67h-164.947v75.67zM1024.038 8.948v-28.045c0-24.682-19.919-44.865-44.298-44.865h-354.575c-24.379 0-44.298 20.184-44.298 44.865v28.045h443.171zM443.209 8.948v-28.045c0-24.682-19.919-44.865-44.298-44.865h-354.575c-24.379 0-44.298 20.184-44.298 44.865v28.045h443.171z" />
<glyph unicode="&#xe64d;" d="M245.908 583.73h532.41c10.054 0 18.369 8.315 18.369 18.445v307.253c0 10.243-8.315 18.634-18.369 18.634l-532.41-0.076c-10.13 0-18.332-8.278-18.332-18.634v-307.026c-0.189-10.281 8.202-18.596 18.332-18.596zM778.319 154.619h-532.41c-10.13 0-18.332-8.278-18.332-18.369v-149.828c0-10.13 8.202-18.407 18.332-18.407h532.41c10.054 0 18.369 8.278 18.369 18.407v149.639c0.113 10.243-8.202 18.558-18.369 18.558zM933.551 646.737h-102.468v-57.036c0-22.111-17.462-40.027-39.082-40.027h-559.927c-21.355 0-38.969 18.105-38.969 40.027v57.036h-102.581c-32.203 0-58.51-27.025-58.51-60.211v-482.405c0-33.148 26.345-60.286 58.51-60.286h102.581v105.756c0 22.074 17.538 40.141 38.969 40.141h560.116c21.355 0 38.893-18.067 38.893-40.141v-105.756h102.468c32.165 0 58.51 27.138 58.51 60.286v482.405c0.189 33.186-26.269 60.211-58.51 60.211zM841.893 393.383h-157.992c-19.995 0-36.474 16.442-36.474 36.512 0 20.032 16.48 36.512 36.474 36.512h157.879c19.957 0 36.588-16.48 36.588-36.512 0-20.070-16.517-36.512-36.474-36.512zM204.823 385.899c-22.754 0-41.426 18.634-41.426 41.426 0 22.905 18.672 41.652 41.426 41.652 22.792 0 41.388-18.634 41.388-41.652 0-22.943-18.596-41.426-41.388-41.426z" />
<glyph unicode="&#xe64e;" d="M641.682-31.154l-48.040-32.846h-163.284l-47.587 32.846h258.91zM512 960.076c212.118 0 384.057-170.578 384.057-380.92 0-134.596-70.454-252.863-176.588-320.595-138.262 0-276.599 0-414.861 0-106.172 67.657-176.588 185.924-176.588 320.595 0 210.341 171.939 380.92 383.981 380.92zM715.424 632.639c0-0.038-17.387-53.785-63.008-53.559h-0.076c-18.596 0.189-31.296 15.459-44.374 31.372-59.379 72.382-132.441 72.382-191.858 0-13.078-15.913-25.74-31.183-44.374-31.372h-0.076c-45.621-0.227-62.97 53.521-62.97 53.559-13.002 33.904-56.998 16.442-45.092-14.779 0-0.151 27.743-86.48 108.364-85.875h0.076c41.085 0.302 60.664 23.926 80.924 48.645 40.065 49.023 78.089 49.023 118.154 0 20.259-24.719 39.838-48.343 80.961-48.645h0.038c80.621-0.605 108.402 85.724 108.402 85.875 11.868 31.22-32.128 48.683-45.092 14.779zM689.269 214.451l-28.839-225.838h-296.216l-28.083 225.838h353.139z" />
<glyph unicode="&#xe64f;" d="M143.138 817.845l-27.29 0.038c-68.337-0.378-69.887-353.063 0-352.080l27.29 0.454v351.589zM457.383 818.941v-339.078h-37.23v337.491c-73.024-2.381-151.34-0.491-241.524 0.265v-350.984l0.643-437.993c0.151-127.414 240.919-121.858 240.919 6.955l-0.038 256.643c97.252 1.928 143.931 67.695 142.268 162.49 97.819-12.057 227.539-60.135 341.044-125.298 26.269-14.741 57.3 0.265 56.62 30.729v563.442c0.68 30.464-30.351 45.546-56.62 30.729-169.709-97.441-299.051-127.225-446.082-135.389z" />
<glyph unicode="&#xe650;" d="M815.209 758.617l-19.277-17.878c60.627-68.98 97.857-182.56 98.764-282.609 17.878-8.391 30.313-26.836 30.313-48.229 31.598-20.524 99.028-52.614 99.028-98.764v-158.748c0-54.957-61.42-78.164-99.028-99.936 0-69.849-102.846-69.925-102.846 0 0 72.533 0 285.028 0 357.448 0 19.012 9.865 35.756 24.568 45.054-0.151 88.634-32.846 191.858-86.48 252.749l-18.558-17.273c-123.483 142.911-348.943 138.715-467.362-9.487l-18.974 16.744c-48.569-59.644-77.862-158.937-78.013-242.733 14.703-9.298 24.568-26.042 24.568-45.054 0-72.419 0-284.915 0-357.448 0-69.925-102.846-69.849-102.846 0-37.608 21.771-99.028 44.865-99.028 99.936v158.748c0 46.679 67.279 78.127 99.028 98.764 0 21.393 12.435 39.838 30.313 48.229 0.794 94.871 34.395 204.142 89.466 271.686l-19.73 17.424c156.518 194.277 453.566 198.851 616.093 11.377z" />
<glyph unicode="&#xe651;" d="M673.356 732.423l-61.231 99.633h-403.069l-60.438-99.633h-98.991c-27.327 0-49.628-22.489-49.628-50.119v-568.167c0-27.554 22.3-50.119 49.628-50.119h924.82c27.365 0 49.628 22.565 49.628 50.119v568.167c0 27.516-22.263 50.119-49.628 50.119-100.351 0-200.741 0-301.092 0zM759.533 756.236h176.059v55.335h-176.059v-55.335zM412.027 671.003c137.695 0 250.482-113.845 250.482-253.090 0-138.715-113.165-253.052-250.482-253.052-137.846 0-250.519 113.807-250.519 253.052 0 138.753 113.127 253.090 250.519 253.090zM412.027 563.319c-78.883 0-143.931-65.729-143.931-145.406 0-80.13 64.633-145.406 143.931-145.406 78.845 0 143.931 65.729 143.931 145.406 0 80.092-64.595 145.406-143.931 145.406z" />
<glyph unicode="&#xe652;" d="M512 960c-282.723 0-512.038-229.315-512.038-512.038 0-282.685 229.315-512 512.038-512 41.237 0 81.377 4.951 119.779 14.136h344.181v56.129h-205.087c151.378 88.974 253.127 253.505 253.127 441.735 0 282.723-229.315 512.038-512 512.038zM202.933 553.908c58.548 0 105.983-47.398 105.983-105.945s-47.435-105.945-105.983-105.945c-58.51 0-105.945 47.398-105.945 105.945s47.435 105.945 105.945 105.945zM265.676 233.312c29.293 50.648 94.077 67.997 144.801 38.78 50.686-29.293 68.035-94.077 38.78-144.763-29.293-50.648-94.077-68.073-144.725-38.78-50.762 29.255-68.073 94.077-38.855 144.763zM574.743 127.329c-29.293 50.686-11.944 115.47 38.78 144.763 50.686 29.217 115.432 11.868 144.725-38.78 29.255-50.762 11.906-115.508-38.78-144.763-50.724-29.293-115.47-11.944-144.725 38.78zM466.152 421.58c-14.703 25.362-6.010 57.716 19.352 72.419 25.324 14.59 57.754 5.934 72.344-19.428 14.665-25.362 5.934-57.754-19.352-72.419-25.362-14.59-57.754-5.934-72.344 19.428zM821.067 553.908c58.51 0 105.945-47.398 105.945-105.945s-47.435-105.945-105.945-105.945c-58.548 0-105.983 47.398-105.983 105.945s47.435 105.945 105.983 105.945zM574.743 768.595c29.293 50.648 94.077 68.073 144.801 38.78 50.686-29.255 67.997-94.077 38.78-144.763-29.293-50.648-94.077-67.997-144.763-38.78-50.724 29.293-68.073 94.077-38.818 144.763zM265.676 662.612c-29.293 50.686-11.944 115.508 38.78 144.801 50.686 29.255 115.432 11.831 144.763-38.818 29.217-50.686 11.868-115.47-38.78-144.687-50.762-29.293-115.508-11.944-144.763 38.704z" />
<glyph unicode="&#xe653;" d="M860.187 457.6c24.266-214.007-63.386-521.563-348.225-521.563-284.877 0-372.453 307.631-348.187 521.563 216.313 72.533 480.099 72.419 696.412 0zM535.245 846.911c158.257-13.342 287.939-162.49 320.595-358.279-95.098 30.276-207.62 48.38-328.457 49.779v52.878h25.4c9.6 0 17.462 7.862 17.462 17.5v157.576c0 9.638-7.862 17.538-17.462 17.538h-81.604c-9.6 0-17.462-7.9-17.462-17.538v-157.576c0-9.638 7.862-17.5 17.462-17.5h25.4v-52.878c-120.837-1.398-233.397-19.503-328.457-49.779 32.619 195.789 162.263 344.823 320.52 358.203v113.24h46.604v-113.165zM478.814 763.833h66.334c3.213 0 5.821-2.608 5.821-5.859v-138.867c0-3.213-2.608-5.821-5.821-5.821h-66.334c-3.213 0-5.821 2.608-5.821 5.821v138.867c0 3.251 2.608 5.859 5.821 5.859z" />
<glyph unicode="&#xe654;" d="M0 805.070c51.442 72.457 136.221 138.715 183.429 151.907 200.514 56.28 893.411-641.417 837.585-843.367-13.116-47.473-86.026-125.827-157.992-177.609l-30.313 15.043c-23.661 11.642-133.386 120.535-145.557 146.502l-14.816 30.616c25.475 35.907 52.84 65.502 81.302 91.242 23.207 21.053 26.534 40.33-5.065 93.661-75.292 126.734-248.176 300.941-374.116 376.686-52.878 31.825-72.155 28.537-93.019 5.14-25.664-28.612-55.070-56.242-90.675-81.869l-30.313 14.968c-25.815 12.171-133.915 122.727-145.519 146.577l-14.93 30.502z" />
<glyph unicode="&#xe655;" d="M5.896 598.924c-12.019 86.404-4.989 151.982 14.968 194.315 84.855 179.801 897.531 179.801 982.385 0 19.919-42.333 26.987-107.911 14.93-194.315l-26.534-10.848c-20.675-8.429-148.429-9.6-170.692 0l-26.496 10.848c-6.010 42.824-7.181 82.549-5.481 120.573 1.323 30.956-7.9 46.755-57.565 61.647-118.003 35.529-320.746 35.529-438.749 0-49.665-14.892-58.888-30.691-57.565-61.647 1.701-38.024 0.529-77.749-5.443-120.573l-26.496-10.848c-22.263-9.6-150.017-8.429-170.692 0l-26.571 10.848zM381.713 623.492c-52.273 0-76.955-26.269-91.507-65.616l-181.653-489.586c-22.867-61.572 12.397-100.314 62.138-100.314 227.539 0 455.229 0 682.73 0 49.741 0 85.006 38.742 62.138 100.314l-181.615 489.586c-14.59 39.347-39.271 65.616-91.582 65.616-86.858 0-173.753 0-260.649 0zM512.076 514.032c95.249 0 173.073-79.072 173.073-175.946 0-96.458-78.164-175.87-173.073-175.87-95.287 0-173.111 79.109-173.111 175.87 0 96.798 77.862 175.946 173.111 175.946z" />
<glyph unicode="&#xe656;" d="M38.553 95.164l120.724-120.648c4.762-4.8 4.762-12.662 0-17.424l-17.462-17.462c-4.8-4.8-12.662-4.8-17.462 0l-120.724 120.648c-4.762 4.8-4.762 12.662 0 17.462l17.462 17.424c4.8 4.8 12.662 4.8 17.462 0zM507.691 666.581c-10.281 77.257 14.325 158.219 73.629 217.485 101.296 101.296 265.525 101.296 366.783 0 101.259-101.221 101.259-265.449 0-366.708-59.304-59.379-140.303-83.985-217.409-73.742l-223.003 222.965zM692.67 410.354l-474.392-423.101-161.469 161.394 418.83 478.776 217.031-217.069z" />
<glyph unicode="&#xe657;" d="M262.577-8.854h498.96v-55.108h-498.96v55.108zM706.315 770.447v-189.704h141.701v-54.503l0.038-45.659c0-92.149-37.608-175.946-98.386-236.421-50.573-50.346-117.209-84.59-191.556-94.795v-136.561h-92.112v136.561c-74.385 10.13-140.983 44.449-191.594 94.795-60.74 60.475-98.386 144.272-98.386 236.421l0.113 100.162h141.664v189.704c0 252.787 388.517 252.749 388.517 0zM706.315 526.24v-50.27c0-252.749-388.517-252.749-388.517 0v50.27h-86.782l-0.076-45.659c0-77.257 31.523-147.22 82.36-197.792 50.799-50.535 121.178-81.906 198.737-81.906 77.598 0 147.976 31.372 198.813 81.906 50.724 50.573 82.284 120.535 82.284 197.792l-0.038 45.659h-86.782z" />
<glyph unicode="&#xe658;" d="M512 928.061c-224.25 0-406.055-184.45-406.055-411.913 0-143.894 72.759-270.476 182.9-344.143-94.568-33.942-179.31-89.012-248.781-159.391-13.985-14.287-27.403-29.104-40.103-44.601h191.48c89.315 67.997 200.249 108.251 320.558 108.251 120.119 0 231.167-40.254 320.444-108.251h191.556c-12.7 15.459-26.156 30.238-40.103 44.525-69.471 70.416-154.288 125.486-248.856 159.466 110.254 73.629 183.014 200.249 183.014 344.143 0 227.463-181.804 411.913-406.055 411.913zM512 660.571c78.656 0 142.344-64.671 142.344-144.423 0-79.639-63.688-144.309-142.344-144.309s-142.344 64.671-142.344 144.309c0 79.752 63.688 144.423 142.344 144.423z" />
<glyph unicode="&#xe659;" d="M1024 768.066l-294.477-316.551 294.515-323.506-0.038 640.057zM50.043 732.045h582.076c27.554 0 50.006-23.623 50.006-52.387v-463.166c0-28.764-22.565-52.425-50.006-52.425h-582.076c-27.441 0-50.006 23.548-50.006 52.425v463.166c0 28.877 22.451 52.387 50.006 52.387z" />
<glyph unicode="&#xe65a;" d="M245.644 960.038c-38.288 0-69.622-30.464-69.622-67.732v-888.535c0-37.268 31.447-67.732 69.622-67.732h532.788c38.175 0 69.622 30.578 69.622 67.732v888.535c0 37.155-31.334 67.732-69.622 67.732h-532.788zM227.879 869.476h568.318v-728.389h-568.318v728.389zM511.131 96.638c33.224 0 60.173-26.193 60.173-58.51 0-32.354-26.949-58.548-60.173-58.548s-60.173 26.193-60.173 58.548c0 32.317 26.949 58.51 60.173 58.51z" />
<glyph unicode="&#xe65b;" d="M154.552 646.057c-58.586 0-106.512-47.889-106.512-106.475v-497.070c0-58.586 47.927-106.475 106.512-106.475h714.971c58.586 0 106.512 47.889 106.512 106.475v497.070c0 58.586-47.927 106.475-106.512 106.475h-222.285l282.496 282.345-31.712 31.674-301.621-301.546c-13.267 33.564-46.113 57.376-84.363 57.376-38.326 0-71.096-23.737-84.401-57.3l-301.583 301.47-31.712-31.674 282.496-282.345h-222.285zM171.901 571.937h680.273c27.479 0 49.817-22.565 49.817-49.854v-365.423c0-27.214-22.527-49.741-49.817-49.741h-680.273c-27.29 0-49.817 22.338-49.817 49.741v365.423c0 27.479 22.338 49.854 49.817 49.854zM675.51 62.658c23.661 0 42.9-19.239 42.9-42.938s-19.239-42.938-42.9-42.938c-23.737 0-43.013 19.239-43.013 42.938s19.277 42.938 43.013 42.938zM859.734 62.658c23.699 0 42.9-19.239 42.9-42.938s-19.201-42.938-42.9-42.938c-23.737 0-42.938 19.239-42.938 42.938s19.201 42.938 42.938 42.938z" />
<glyph unicode="&#xe65c;" d="M1024.038 226.017v702.044h-1024v-701.968l410.666-0.076v-156.934h-216.275v-101.070l623.577 0.038v101.032h-201.043v156.934h407.075zM69.849 846.382h884.34v-522.923h-884.34v522.923z" />
<glyph unicode="&#xe65d;" d="M70.303 710.879c-17.349-27.025-7.446-58.397 22.829-70.87v-0.038l348.527-144.347c24.644-10.054 32.997-1.852 22.829 22.867l-144.423 348.527c-12.397 29.822-43.127 40.783-70.756 22.867l-0.038-0.038c-70.718-44.638-134.444-108.175-178.969-178.969zM774.841 6.265c70.794 44.601 134.369 108.175 178.969 178.969l0.038 0.038c17.424 27.252 7.408 58.056-22.829 70.832v0.038l-348.527 144.385c-25.551 10.508-32.279 0.038-22.829-22.905l144.309-348.527h0.076c12.435-30.276 43.769-40.178 70.794-22.829zM13.834 321.493c6.766-31.409 35.794-46.377 66.183-33.904v-0.076l348.641 144.385c23.018 9.374 25.248 21.885 0 32.354l-348.641 144.347c-30.351 12.208-59.115-1.474-66.183-33.904-18.445-81.491-18.445-171.675 0-253.203zM1010.242 321.493c18.445 81.604 18.445 171.523 0 253.090-6.992 32.317-35.983 46.339-66.183 34.017v0.038l-348.603-144.385c-25.248-10.47-23.018-22.981 0-32.354l348.603-144.309c30.427-12.473 59.455 2.495 66.183 33.904zM249.197 6.34c27.025-17.349 58.397-7.484 70.87 22.829l144.385 348.527c9.449 22.943 2.646 33.375-22.867 22.867l-348.527-144.461c-30.276-12.586-40.178-43.618-22.867-70.718l0.038-0.038c44.26-70.114 108.894-134.822 178.969-179.007zM953.811 710.879c-44.601 70.794-108.175 134.369-178.969 178.969l-0.038 0.038c-27.441 17.954-58.586 7.030-70.832-22.792h-0.038l-144.385-348.565c-10.508-25.513-0.038-32.317 22.905-22.829l348.527 144.385c30.276 12.435 40.178 43.769 22.829 70.794zM385.493-50.166c81.566-18.445 171.561-18.445 253.127 0 31.372 7.219 46.49 35.378 33.942 66.183h0.038l-144.385 348.603c-10.432 25.248-22.943 23.056-32.354 0l-144.309-348.603c-12.511-30.691 3.818-59.719 33.942-66.183zM385.493 946.242c-31.447-6.766-46.415-35.794-33.942-66.183h-0.076l144.385-348.641c9.411-23.056 21.922-25.248 32.354 0l144.347 348.641c12.549 30.767-2.57 58.926-33.942 66.183-81.528 18.445-171.637 18.445-253.127 0z" />
<glyph unicode="&#xe65e;" d="M386.702 810.626c11.112 2.873 22.451 5.292 33.98 7.333l-3.137-47.851c-9.6 11.566-20.41 25.513-30.842 40.519zM544.997 824.913c38.78-2.419 76.388-9.071 112.144-19.617-1.398-1.776-2.797-3.44-4.12-4.951-25.853-30.464-71.134-57.452-98.31-72.004l-9.714 96.572zM437.199 853.752l-8.353-126.885c0 0-42.446 45.092-73.402 94.455-31.031 49.287-63.008 138.715-63.008 138.715s-10.848-77.824 16.933-155.762c27.856-77.862 54.995-109.083 54.995-109.083s-45.961-8.92-109.007 0.378c-63.083 9.26-143.024 49.779-143.024 49.779 47.587-100.427 148.014-149.601 283.894-119.59-10.848-39.536-73.137-33.299-97.857-12.473 40.254-74.801 155.8-83.569 204.596-12.549 33.564-55.033 145.973-84.817 205.276-69.32-47.246 16.328-98.424 56.998-117.096 112.862 127.339-41.955 256.907-4.762 367.615 62.668 0 0-104.358-24.304-175.605-26.571-71.134-2.192-121.631 9.6-121.631 9.6s48.569 30.842 70.114 97.252c21.507 66.372 12.964 156.594 12.964 156.594s-40.481-105.832-81.604-154.212c-41.048-48.343-126.734-87.803-126.734-87.803l-15.875 157.954c-0.68 6.35-8.051 29.142-42.786 26.874-34.887-2.192-40.632-27.894-40.405-32.884zM747.476 768.86c35.114-18.332 67.543-40.67 96.458-66.372-19.919-2.721-39.989-4.687-57.792-5.292-32.959-0.907-61.269 1.058-81.68 3.553 14.401 15.497 31.22 38.1 43.013 68.11zM902.936 638.951c53.143-71.474 89.050-161.847 89.126-257.928 0.227-250.671-214.99-445.061-480.024-445.061s-480.024 199.266-480.024 445.061c0 103.337 38.024 198.548 101.863 274.067 41.577-51.971 92.981-68.904 149.147-72.193 38.364-83.456 168.953-86.14 221.869-29.104 62.29-73.478 222.663-69.887 296.67-28.159-47.587 14.136-112.522 42.106-137.884 73.024 70.265-14.023 178.365 6.614 239.256 40.292zM208.224 725.544c28.726 21.809 60.286 40.594 94.077 55.864 12.738-32.808 25.097-56.658 34.622-72.646-18.332-1.058-44.638-0.945-75.556 3.553-17.047 2.457-35.454 7.37-53.143 13.229z" />
<glyph unicode="&#xe65f;" d="M454.208 960.076c0 0-117.625-65.465-115.735-144.196 1.814-78.656 88.899-93.888 88.861-167.781-0.076-73.931-97.857-127.263-97.857-127.263s141.626 24.795 158.937 109.385c17.235 84.59-48.191 107.004-85.497 180.103-37.306 73.024 51.291 149.752 51.291 149.752zM43.089 501.672c253.657 0 507.275 0 760.894 0 31.485 0 47.095-20.032 42.219-43.202-3.855-18.143-7.219-35.303-10.243-51.517 8.051 1.55 15.988 2.608 23.699 3.213 102.959 8.051 183.996-70.189 160.184-171.41-29.633-125.26-169.974-168.424-294.553-204.445-23.094-29.179-53.294-60.929-93.246-98.273-167.592 0-245.719 0-413.312 0-203.727 190.46-157.727 237.366-217.825 522.432-4.838 23.17 10.734 43.202 42.182 43.202zM824.885 342.508c-16.404-103.753-20.864-168.008-51.14-232.074 86.631 28.423 169.029 68.413 186.302 141.55 14.59 62.441-33.564 103.337-95.589 98.651-12.397-0.945-25.664-3.591-39.574-8.126zM575.726 530.36c0 0 89.844 56.167 85.535 122.047-4.309 66.032-80.206 90.827-79.865 148.24 0.416 57.414 83.494 102.468 83.494 102.468s-107.004-37.57-113.618-98.424c-6.577-60.891 40.443-73.667 73.931-134.596 33.375-60.891-49.476-139.736-49.476-139.736zM219.223 901.792c0 0-81.642-72.722-66.523-133.499 15.043-60.702 97.101-73.175 107.344-133.953 10.243-60.702-64.746-114.563-64.746-114.563s105.832 50.459 95.173 115.432c-10.697 65.087-63.272 67.695-102.128 125.335s30.88 141.248 30.88 141.248z" />
<glyph unicode="&#xe660;" d="M553.955 428.799l463.544 422.232c14.627 14.968 3.629 45.092-23.585 45.016-97.781-0.038-460.18-0.416-963.903 0-27.214 0.076-38.175-30.049-23.548-45.016l463.506-422.232v-288.052c-0.189-25.664-17.122-47.246-39.309-54.125l-282.004-78.24c-10.432-2.835-19.466-8.353 0.151-8.353 230.752 0 495.634 0 726.537 0 19.466 0 10.394 5.518-0.151 8.353l-280.341 77.862c-22.754 7.711-41.123 26.798-40.897 54.503v288.052z" />
<glyph unicode="&#xe661;" d="M60.060-20.647l-0.151 0.265-0.113 0.227c-7.484 10.432-12.246 25.097-11.15 40.292 11.604 165.589 199.304 237.479 389.726 405.488l-7.37 8.013c-66.145 71.588-191.631 45.886-284.688 125.033-269.909 229.429-7.068 496.806 218.392 222.247 77.824-94.72 52.462-222.398 122.841-289.715l8.996-8.542c19.239 25.324 19.239 45.659 9.336 76.123-12.775 38.969 1.058 97.592 25.778 122.727 85.006 86.518 147.22 149.828 232.263 236.345 29.217 29.822 71.626-12.549 41.955-42.711l-192.312-195.714c-29.595-30.087 15.837-76.010 45.357-46.075l196.243 199.796c27.365 27.705 70.87-16.555 43.618-44.336l-196.356-199.796c-29.406-29.973 15.724-76.199 45.319-46.037l192.312 195.676c29.633 30.162 71.285-13.040 41.993-42.749-85.081-86.518-147.295-149.79-232.263-236.27-24.719-25.211-82.36-39.233-120.686-26.269-27.894 9.411-47.171 10.016-69.887-5.821 178.062-147.825 344.634-220.546 355.595-376.157 2.495-35.983-16.177-54.995-51.555-52.425-152.625 11.112-224.137 180.103-368.976 360.925-162.263-192.047-233.171-380.050-394.489-391.805-15.005-1.058-29.368 3.78-39.649 11.377l-0.076-0.113z" />
<glyph unicode="&#xe662;" d="M-0.038 149.365v212.911l317.761 116.944 50.497-49.439-271.535-96.836 415.315-160.487 415.315 160.487-271.535 96.836 50.459 49.439 317.761-116.944v-212.911l-512-213.327-512.038 213.327zM423.479 960.038h177.042v-327.701h225.498l-314.019-307.555-314.019 307.555h225.498v327.701z" />
<glyph unicode="&#xe663;" d="M-0.038 149.327v212.911l372.264 136.977v-68.035l-275.541-98.273 415.315-160.487 415.315 160.487-275.579 98.273v68.035l372.264-136.977v-212.911l-512-213.327-512.038 213.327zM423.479 324.706h177.042v327.701h225.498l-314.019 307.555-314.019-307.555h225.498v-327.701z" />
<glyph unicode="&#xe664;" d="M223.457 815.993c-72.911 0.832-166.572-78.58-204.483-278.527-37.911-199.871-21.015-457.383 67.884-457.497 137.582-0.151 117.814 309.143 271.535 309.143 115.546 0 191.745 0 307.291 0 153.721 0 134.029-309.294 271.535-309.143 88.899 0.076 105.794 257.625 67.884 457.497-37.911 199.947-131.572 279.359-204.483 278.527s-116.793-78.694-151.415-77.635c-104.585 0-169.747 0-274.332 0-34.622-1.058-78.505 76.804-151.415 77.635zM253.241 721.84c80.848 0 146.502-67.052 146.502-149.639s-65.654-149.639-146.502-149.639c-80.848 0-146.464 67.052-146.464 149.639s65.616 149.639 146.464 149.639zM254.413 627.499c-29.406 0-53.218-24.341-53.218-54.352 0-30.087 23.812-54.428 53.218-54.428s53.256 24.341 53.256 54.428c0 30.011-23.85 54.352-53.256 54.352zM311.902 637.288l-56.734 30.087-56.809-30.087v26.231l56.809 30.087 56.734-30.087v-26.231zM189.25 630.825l-29.444-57.981 29.444-57.981h-25.702l-29.406 57.981 29.406 57.981h25.702zM311.902 505.149l-56.734-30.087-56.809 30.087v-26.231l56.809-30.087 56.734 30.087v26.231zM318.63 630.825l29.444-57.981-29.444-57.981h25.702l29.406 57.981-29.406 57.981h-25.702zM709.301 532.363l-52.727-53.861c-20.184 25.626-32.317 58.245-32.317 93.699 0 35.492 12.171 68.11 32.43 93.775l52.462-53.559c-7.181-11.566-11.377-25.211-11.377-39.876 0-14.816 4.233-28.575 11.528-40.178zM770.873 647.191c-15.535 0-29.973-5.027-41.804-13.456l-52.198 53.332c25.437 21.658 58.17 34.773 93.888 34.773 34.698 0 66.561-12.397 91.696-32.997l-52.273-53.445c-11.415 7.446-24.795 11.793-39.309 11.793zM830.97 614.95l52.122 53.256c21.28-26.042 34.169-59.455 34.169-96.005 0-36.512-12.813-69.962-34.055-95.891l-52.387 53.521c8.24 12.095 13.153 26.836 13.153 42.711 0 15.724-4.8 30.389-13.002 42.408zM809.917 509.458l52.651-53.785c-25.135-20.675-57.074-33.11-91.809-33.11-35.794 0-68.526 13.153-94.001 34.887l52.576 53.672c11.793-8.353 26.118-13.229 41.539-13.229 14.401 0 27.743 4.271 39.044 11.566z" />
<glyph unicode="&#xe665;" d="M55.222-8.4l263.522 262.614-195.487 194.995c-10.659 10.508-20.070 21.847-28.461 34.017 135.163-79.639 252.447-87.349 333.9-76.312 4.309-8.845 10.243-17.16 17.651-24.606 19.73-19.692 46.113-28.726 71.966-27.063 10.697-84.477-1.058-211.513-106.777-358.619-112.56-43.127-255.471-31.523-356.314-5.027zM55.637 903.153l262.312-261.518 195.903 195.336c10.47 10.47 21.96 19.995 34.131 28.461-80.243-135.427-87.614-252.749-76.464-333.824-9.147-4.46-17.538-10.47-25.173-17.991-19.881-19.843-28.877-46.453-27.063-72.382-84.779-10.47-211.891 1.776-358.619 106.777-43.164 111.955-31.561 254.639-5.027 355.142zM969.005 904.438l-263.748-263.144 195.487-194.844c10.659-10.621 19.919-21.998 28.386-34.169-134.898 79.563-251.88 87.311-333.257 76.501-4.498 8.958-10.47 17.349-17.878 24.833-19.73 19.692-46.113 28.726-71.966 26.949-10.772 84.59 1.096 211.626 106.777 358.733 112.409 43.202 255.546 31.523 356.2 5.14zM968.287-7.644l-262.388 261.556-195.411-194.958c-10.508-10.47-22.036-19.957-34.244-28.31 80.281 135.276 87.652 252.598 76.577 333.673 9.109 4.46 17.538 10.47 25.173 17.991 19.843 19.843 28.839 46.15 26.987 72.041 84.817 10.356 211.74-1.965 358.279-106.777 43.24-112.069 31.598-254.639 5.027-355.217z" />
<glyph unicode="&#xe666;" d="M116.755 187.88c-43.58 0.113-43.542-70.945 0-70.643l62.97-0.038c-4.838-2.343-9.525-5.254-13.758-8.353-23.283-17.16-38.591-45.621-38.591-77.787 0-52.462 40.821-95.060 91.053-95.060 50.195 0 90.978 42.597 90.978 95.060 0 34.509-17.613 64.822-43.845 81.377-2.646 1.663-5.556 3.326-8.467 4.762h440.223l1.247-5.14c-26.004-16.706-43.316-46.717-43.316-80.999 0-52.462 40.783-95.060 91.053-95.060 50.195 0 90.978 42.597 90.978 95.060 0 45.092-30.011 82.776-70.189 92.679 9.941 5.67 18.067 15.421 21.431 30.842l138.489 651.056c6.841-2.192 14.098-3.288 21.62-3.288 41.577 0 75.443 35.303 75.443 78.807 0 43.542-33.866 78.92-75.443 78.92-31.976 0-59.304-20.826-70.378-50.157l-81.604-186.226h-752.617c-27.29-0.416-46.831-20.977-43.693-45.848l50.913-358.922c4.649-27.781 27.176-47.549 53.823-47.36h611.973l-17.311-83.683h-582.983zM113.505 648.703h652.454c17.311 0 31.372-14.665 31.372-32.77v0c0-18.067-14.363-32.77-31.372-32.77h-652.454c-17.009 0-31.372 14.703-31.372 32.77v0c0 18.105 14.061 32.77 31.372 32.77zM136.296 526.013h600.483c17.311 0 31.372-14.703 31.372-32.808v0c0-18.067-14.514-32.77-31.372-32.77h-600.483c-16.82 0-31.372 14.703-31.372 32.77v0c0 18.105 14.061 32.808 31.372 32.808zM158.181 405.138h553.993c17.273 0 31.334-14.703 31.334-32.77v0c0-18.105-14.59-32.77-31.334-32.77h-553.993c-16.782 0-31.372 14.665-31.372 32.77v0c0 18.067 14.061 32.77 31.372 32.77z" />
<glyph unicode="&#xe667;" d="M108.856 960.076c-24.719 0-44.827-20.788-44.827-46.188v-931.699c0-25.4 20.108-46.188 44.827-46.188h806.364c24.719 0 44.827 20.788 44.827 46.188v931.699c0 25.4-20.108 46.188-44.827 46.188h-806.364zM743.923 859.8c35.378 0 64.028-29.557 64.028-66.032 0-26.723-15.421-49.779-37.608-60.173l0.076-1.21c0-73.553-28.953-140.303-75.67-188.457-46.755-48.154-111.388-78.089-182.749-78.089-71.285 0-135.918 29.935-182.674 78.089l0.038 0.076c-46.755 48.154-75.708 115.017-75.708 188.381l0.076 1.285c-22.111 10.394-37.533 33.413-37.533 60.097 0 36.474 28.65 66.032 64.028 66.032s64.104-29.557 64.104-66.032c0-27.176-15.913-50.61-38.704-60.74v-0.643c0-58.775 23.132-112.069 60.362-150.508h0.113c37.344-38.515 88.974-62.365 145.897-62.365 56.998 0 108.629 23.85 145.973 62.365 37.268 38.515 60.475 91.734 60.475 150.508v0.718c-22.716 10.205-38.629 33.488-38.629 60.664 0 36.474 28.726 66.032 64.104 66.032z" />
<glyph unicode="&#xe668;" d="M315.115 620.771c-98.31 49.363-169.445 169.369-82.284 228.559 54.088 36.852 146.691 0 200.060-59.039 51.253-56.62 81.226-135.881 76.35-169.52h5.67c-4.876 33.639 25.097 112.9 76.35 169.52 53.37 59.039 145.973 95.891 200.060 59.039 87.16-59.19 16.026-179.196-82.284-228.559h315.001v-131.307h-487.281v112.484h-49.363v-112.484h-487.356v131.307h315.077zM536.757 451.969h453.414v-419.926h-453.414zM33.98 451.969h453.414v-419.926h-453.414z" />
<glyph unicode="&#xe669;" d="M429.716 755.026c-47.095 59.568-104.282 107.571-173.716 136.41-10.545-73.326 3.704-150.584 31.258-218.694-68.035 27.214-145.217 41.993-218.656 31.258 28.877-69.547 77.446-127.225 136.372-173.716-74.158-11.453-144.725-36.512-205.012-82.209 59.077-45.621 131.647-71.739 204.974-82.322-58.586-45.999-108.1-104.774-136.41-173.753 73.44-9.676 150.244 3.629 218.694 31.334-26.76-67.619-41.955-145.481-31.258-218.694 69.509 27.97 127.565 78.353 173.753 136.448 7.446-66.296 38.515-148.354 82.284-205.125 44.827 59.19 71.966 131.874 82.247 205.012 44.676-60.664 103.904-103.867 173.753-136.372 9.789 73.213-2.948 150.735-31.334 218.694 64.973-26.496 146.502-37.948 218.732-31.296-28.423 68.564-78.051 128.435-136.372 173.716 75.745 8.429 149.072 38.591 204.974 82.36-59.53 45.054-131.421 71.777-204.974 82.209 59.757 47.398 111.691 108.516 136.334 173.791-72.911 9.752-150.622-2.91-218.694-31.334 22.451 63.272 34.169 159.353 31.296 218.732-68.753-28.499-128.321-77.9-173.716-136.41-10.621 73.024-36.777 146.124-82.247 204.936-45.432-58.775-71.739-131.95-82.284-204.974zM511.962 695.42c136.674 0 247.458-110.783 247.458-247.42 0-136.674-110.783-247.458-247.458-247.458-136.637 0-247.42 110.783-247.42 247.458 0 136.637 110.783 247.42 247.42 247.42zM353.063 606.899c3.78 3.742 7.635 7.37 11.566 10.772l17.5-17.5-22.338-22.338-17.5 17.538c3.402 3.969 7.030 7.748 10.772 11.528zM397.664 584.637l22.376-22.3-22.376-22.376-22.338 22.376 22.338 22.3zM435.574 546.802l22.338-22.338-22.338-22.338-22.338 22.338 22.338 22.338zM473.447 508.891l22.376-22.338-22.376-22.338-22.338 22.338 22.338 22.338zM511.357 470.981l22.3-22.338-22.3-22.338-22.338 22.338 22.338 22.338zM382.053 631.392c8.92 6.388 18.256 11.982 27.819 16.82l10.167-10.167-22.376-22.338-15.61 15.686zM435.574 622.547l22.338-22.376-22.338-22.338-22.338 22.338 22.338 22.376zM473.447 584.637l22.376-22.3-22.376-22.376-22.338 22.376 22.338 22.3zM511.357 546.802l22.3-22.338-22.3-22.338-22.338 22.338 22.338 22.338zM431.379 657.812c4.233 1.663 8.542 3.137 12.927 4.498l-8.731-8.693-4.195 4.195zM473.447 660.382l22.376-22.338-22.376-22.338-22.338 22.338 22.338 22.338zM511.357 622.547l22.3-22.376-22.3-22.338-22.338 22.338 22.338 22.376zM493.064 671.91c12.208 1.021 24.455 1.021 36.625 0.038l-18.332-18.332-18.294 18.294zM577.843 662.877c4.649-1.398 9.26-2.948 13.872-4.725l-4.611-4.536-9.26 9.26zM571.568 638.044l-22.338-22.338-22.3 22.338 22.3 22.338 22.338-22.338zM613.221 648.627c9.638-4.876 18.936-10.356 27.932-16.706l-16.139-16.215-22.338 22.338 10.545 10.583zM609.479 600.171l-22.376-22.338-22.338 22.338 22.338 22.376 22.376-22.376zM571.568 562.336l-22.338-22.376-22.3 22.376 22.3 22.3 22.338-22.3zM658.615 618.238c4.158-3.591 8.278-7.295 12.246-11.301 3.591-3.553 6.955-7.219 10.205-10.923l-18.143-18.18-22.376 22.338 18.067 18.067zM647.352 562.336l-22.338-22.376-22.338 22.376 22.338 22.3 22.338-22.3zM609.479 524.464l-22.376-22.338-22.338 22.338 22.338 22.338 22.376-22.338zM571.568 486.553l-22.338-22.338-22.3 22.338 22.3 22.338 22.338-22.338zM694.825 578.702c6.35-8.92 12.057-18.143 16.971-27.705l-10.999-11.037-22.376 22.376 16.404 16.366zM685.262 524.464l-22.338-22.338-22.376 22.338 22.376 22.338 22.338-22.338zM647.352 486.553l-22.338-22.338-22.338 22.338 22.338 22.338 22.338-22.338zM609.479 448.643l-22.376-22.338-22.338 22.338 22.338 22.338 22.376-22.338zM571.568 410.732l-22.338-22.338-22.3 22.338 22.3 22.338 22.338-22.338zM533.658 372.897l-22.3-22.338-22.338 22.338 22.338 22.3 22.3-22.3zM473.447 388.394l-22.338 22.338 22.338 22.338 22.376-22.338-22.376-22.338zM435.574 426.304l-22.338 22.338 22.338 22.338 22.338-22.338-22.338-22.338zM397.664 464.215l-22.338 22.338 22.338 22.338 22.376-22.338-22.376-22.338zM359.791 502.125l-22.338 22.338 22.338 22.338 22.338-22.338-22.338-22.338zM321.956 539.96l-10.205 10.205c4.876 9.563 10.508 18.823 16.82 27.781l15.686-15.61-22.3-22.376zM721.472 529.566c1.928-5.178 3.742-10.394 5.367-15.648l-10.508 10.545 5.14 5.103zM723.135 486.553l-22.338-22.338-22.376 22.338 22.376 22.338 22.338-22.338zM685.262 448.643l-22.338-22.338-22.376 22.338 22.376 22.338 22.338-22.338zM647.352 410.732l-22.338-22.338-22.338 22.338 22.338 22.338 22.338-22.338zM609.479 372.897l-22.376-22.338-22.338 22.338 22.338 22.3 22.376-22.3zM571.568 334.987l-22.338-22.338-22.3 22.338 22.3 22.338 22.338-22.338zM533.658 297.076l-22.3-22.338-22.338 22.338 22.338 22.414 22.3-22.414zM473.447 312.648l-22.338 22.338 22.338 22.338 22.376-22.338-22.376-22.338zM435.574 350.559l-22.338 22.338 22.338 22.3 22.338-22.3-22.338-22.338zM397.664 388.394l-22.338 22.338 22.338 22.338 22.376-22.338-22.376-22.338zM359.791 426.304l-22.338 22.338 22.338 22.338 22.338-22.338-22.338-22.338zM321.956 464.215l-22.376 22.338 22.376 22.338 22.3-22.338-22.3-22.338zM297.652 515.657l4.498 12.927 4.233-4.12-8.731-8.807zM735.797 468.108c1.172-12.964 1.21-26.080 0.151-39.082l-19.617 19.617 19.466 19.466zM723.135 410.732l-22.338-22.338-22.376 22.338 22.376 22.338 22.338-22.338zM685.262 372.897l-22.338-22.338-22.376 22.338 22.376 22.3 22.338-22.3zM647.352 334.987l-22.338-22.338-22.338 22.338 22.338 22.338 22.338-22.338zM609.479 297.076l-22.376-22.338-22.338 22.338 22.338 22.414 22.376-22.414zM571.568 259.241l-22.338-22.414-22.3 22.414 22.3 22.338 22.338-22.338zM530.936 224.052c-13.002-1.058-26.042-1.021-39.082 0.113l19.503 19.503 19.579-19.617zM473.447 236.827l-22.338 22.414 22.338 22.338 22.376-22.338-22.376-22.414zM435.574 274.738l-22.338 22.338 22.338 22.414 22.338-22.414-22.338-22.338zM397.664 312.648l-22.338 22.338 22.338 22.338 22.376-22.338-22.376-22.338zM359.791 350.559l-22.338 22.338 22.338 22.3 22.338-22.3-22.338-22.338zM321.956 388.394l-22.376 22.338 22.376 22.338 22.3-22.338-22.3-22.338zM287.939 430.273c-0.945 12.133-0.907 24.417 0.113 36.663l18.332-18.294-18.445-18.369zM727.444 384.009c-1.701-5.556-3.553-11.15-5.632-16.593l-5.481 5.481 11.112 11.112zM712.249 345.872c-4.951-9.563-10.508-18.823-16.895-27.819l-16.933 16.933 22.376 22.338 11.453-11.453zM681.671 300.629c-3.44-3.931-7.030-7.786-10.81-11.528-3.742-3.78-7.597-7.37-11.528-10.734l-18.785 18.71 22.376 22.414 18.747-18.861zM641.909 264.646c-8.996-6.35-18.256-11.982-27.781-16.895l-11.453 11.49 22.338 22.338 16.895-16.933zM592.583 238.15c-5.481-2.041-10.961-3.893-16.517-5.556l11.037 11.075 5.481-5.518zM446.157 233.123c-5.292 1.625-10.545 3.44-15.724 5.443l5.14 5.103 10.583-10.545zM409.041 248.204c-9.525 4.876-18.785 10.583-27.705 16.971l16.328 16.404 22.376-22.338-10.999-11.037zM363.949 278.933c-3.704 3.288-7.37 6.652-10.886 10.205-4.006 4.006-7.748 8.051-11.339 12.208l18.067 18.143 22.338-22.414-18.18-18.143zM328.041 318.847c-6.274 8.958-11.831 18.256-16.706 27.894l10.621 10.583 22.3-22.338-16.215-16.139zM301.81 368.286c-1.701 4.611-3.326 9.223-4.725 13.909l9.298-9.298-4.573-4.611z" />
<glyph unicode="&#xe66a;" d="M1024.076 928.061c0-254.337-228.899-481.233-467.021-526.363 0-83.267 89.277-433.684-45.016-433.684v0c-134.293 0-45.016 353.101-45.016 436.368-237.782 45.016-467.021 269.040-467.021 523.679 279.056-23.359 436.67-211.588 511.282-439.354 55.6 227.35 222.058 425.142 512.794 439.354z" />
<glyph unicode="&#xe66b;" d="M791.812 831.301c-10.205 3.175-19.655 8.58-27.176 16.139-25.4 25.589-25.437 67.581 0 93.094 7.559 7.635 16.971 13.040 27.176 16.215v-125.449zM204.785 634.189c-6.652 6.69-15.988 10.886-26.269 10.886s-19.617-4.195-26.269-10.886c-6.69-6.766-10.886-16.177-10.886-26.496 0-10.356 4.195-19.768 10.886-26.496 6.652-6.728 15.988-10.923 26.269-10.923s19.617 4.195 26.269 10.923c6.69 6.728 10.886 16.139 10.886 26.496 0 10.319-4.195 19.73-10.886 26.496zM178.516 723.012c31.598 0 60.286-12.964 80.961-33.791s33.602-49.741 33.602-81.528c0-24.908-7.9-48.078-21.318-66.977 26.307-32.732 47.057-75.632 46.944-129.758v-247.193c0-101.561 75.027-172.506 171.826-172.506v0.038c100.729 0 173.413 72.117 173.413 172.468v146.804h-9.752v46.15c-20.524 6.161-41.048 18.407-51.895 37.608-114.034 1.361-289.45 497.373-95.135 525.909 4.687 10.734 12.208 20.146 21.507 26.987 14.665 10.923 33.904 14.703 52.047 11.906v-130.287c-17.802-2.721-36.739 0.983-51.48 11.528-8.467 6.048-15.497 14.212-20.297 23.548-90.297-26.118 19.428-409.645 113.013-416.638 46.339 0 92.792 0 139.131 0 96.156 7.219 201.837 390.444 112.938 416.638-4.838-9.336-11.755-17.462-20.221-23.548-14.136-10.13-32.203-13.947-49.476-11.755v130.778c17.538 2.23 35.945-1.701 50.119-12.208 9.298-6.841 16.82-16.215 21.544-26.949 184.715-24.417 25.211-524.586-95.249-525.909-10.81-19.088-31.183-31.409-51.593-37.533v-46.226h-10.092v-146.804c0-131.723-100.881-228.144-228.521-227.728v-0.076c-126.772 0-226.934 95.702-226.934 227.803v247.193c0.076 37.986-12.019 68.829-29.444 95.891-16.48-9.26-35.454-14.476-55.637-14.476-31.561 0-60.249 12.927-80.961 33.753-20.675 20.826-33.602 49.779-33.602 81.566s12.927 60.702 33.602 81.528c20.713 20.826 49.401 33.791 80.961 33.791zM618.399 940.534c25.437-25.589 25.324-67.468-0.038-93.019-7.068-7.144-15.761-12.322-25.135-15.535v124.088c9.449-3.213 18.105-8.429 25.173-15.535z" />
<glyph unicode="&#xe66c;" d="M206.335 572.126l70.567 68.64-14.854 14.476-18.143-17.613-70.907 68.98 9.147 64.369-122.841 119.515-5.254 37.57 144.876-140.87 66.069 9.034 70.983-69.055-18.143-17.613 14.854-14.476 70.567 68.564c6.010 5.972 15.837 5.972 21.922 0l423.139-411.649 36.55 35.567c0.832 0.794 2.003 0.794 2.835 0l25.589-24.871c0.794-0.794 0.794-1.965 0-2.759l-88.71-86.253 110.859-107.949 49.741 48.38c2.041 2.003 5.405 2.003 7.408 0l29.898-29.179c2.117-1.928 2.117-5.254 0-7.181l-213.856-208.149c-2.079-2.079-5.443-2.079-7.484 0l-29.898 29.142c-2.117 1.965-2.117 5.178 0 7.219l49.628 48.305-110.859 107.949-88.71-86.366c-0.756-0.756-2.003-0.756-2.835 0l-25.513 24.908c-0.869 0.832-0.869 1.89 0 2.721l36.512 35.643-423.139 411.649c-6.085 5.896-6.085 15.459 0 21.355zM57.149 847.176c17.689-36.852 57.111-78.731 57.111-112.787s-25.589-61.836-57.111-61.836c-31.485 0-57.149 27.781-57.149 61.836s38.742 75.254 57.149 112.787z" />
<glyph unicode="&#xe66d;" d="M595.494 929.347l16.328 27.29c1.89 3.288 6.123 4.347 9.336 2.343l75.745-48.191c3.213-2.079 4.195-6.312 2.268-9.563l-16.215-27.176c29.557-28.688 52.16-64.822 65.313-105.454 57.3-49.136 92.565-116.113 92.565-189.931-0.567-61.95-42.749-151-63.008-220.773-16.669-57.867-13.494-102.619-3.477-107.835 16.139-8.353 62.403 34.169 70.34 43.013 8.013 8.958 15.535 13.153 24.341 8.315l81.075-43.958c8.769-4.8 12.586-15.988 8.051-25.097l-144.536-286.049c-4.536-9.109-15.61-13.002-24.379-8.353l-80.924 43.996c-8.769 4.762-12.019 15.724-8.051 25.211 6.388 15.572 33.98 86.707 12.246 99.331-21.96 12.624-87.916-64.066-110.33-82.851-59.984-50.195-120.308-50.195-180.292 0-22.376 18.785-88.256 95.476-110.254 82.851-21.809-12.624 5.783-83.758 12.284-99.331 3.855-9.487 0.68-20.448-8.126-25.211l-80.961-43.996c-8.769-4.649-19.843-0.756-24.304 8.353l-144.536 286.049c-4.611 9.109-0.794 20.297 8.089 25.097l80.961 43.958c8.807 4.838 16.442 0.643 24.341-8.315 7.937-8.845 54.277-51.366 70.34-43.013 10.016 5.216 13.267 49.968-3.477 107.835-20.259 69.774-62.441 158.824-62.932 220.773 0 73.818 35.265 140.794 92.527 189.931 13.116 40.632 35.718 76.766 65.313 105.454l-16.253 27.176c-1.928 3.251-0.945 7.484 2.268 9.563l75.745 48.191c3.213 2.003 7.446 0.945 9.336-2.343l16.328-27.29c53.521 19.541 113.467 19.541 166.912 0zM702.913 719.459c59.833-7.522 101.259-74.271 92.376-149.11-4.044-33.98-17.651-63.764-37.041-85.459 3.213 14.552 5.178 30.011 5.783 46.188 3.629 95.249-42.446 177.306-102.77 183.241l-1.021 0.113c13.569 5.027 27.932 6.879 42.673 5.027zM582.151 603.573c19.050-49.779 49.439-116.302 88.256-158.483-70.794 12.095-100.805 93.51-88.256 158.483zM586.876 226.244c-42.597 36.55-107.004 36.55-149.677 0-40.367-34.698-40.367-91.582 0-126.28 42.673-36.55 107.079-36.55 149.677 0 40.367 34.698 40.367 91.582 0 126.28zM321.162 719.459c-59.795-7.522-101.259-74.271-92.301-149.11 3.969-33.98 17.651-63.764 36.966-85.459-3.213 14.552-5.178 30.011-5.745 46.188-3.591 95.249 42.408 177.306 102.733 183.241l1.021 0.113c-13.531 5.027-27.932 6.879-42.673 5.027zM441.924 603.573c-19.050-49.779-49.439-116.302-88.256-158.483 70.794 12.095 100.805 93.51 88.256 158.483zM416.562 251.871c-56.053-47.965-56.053-129.644 0-177.647 54.277-46.528 136.674-46.528 191.027 0 56.015 48.002 56.015 129.682 0 177.647-54.352 46.566-136.75 46.566-191.027 0zM705.484 730.534c-64.18 8.618-124.655-50.346-135.049-131.761-10.356-81.415 33.375-154.477 97.592-163.208 64.255-8.693 124.768 50.346 135.163 131.761 10.319 81.377-33.413 154.477-97.706 163.208zM318.592 730.534c-64.293-8.731-108.024-81.831-97.706-163.208 10.394-81.415 70.907-140.454 135.163-131.761 64.293 8.731 107.949 81.793 97.592 163.208-10.319 81.415-70.794 140.379-135.049 131.761z" />
<glyph unicode="&#xe66e;" d="M513.247-0.009l-1.21 0.605-1.21-0.605v1.361c-37.268 21.091-521.827 299.164-510.79 631.326 10.092 306.157 415.013 352.345 498.166 102.241h27.668c83.154 250.104 488.074 203.916 498.166-102.241 11.037-332.161-473.523-610.235-510.79-631.326v-1.361z" />
<glyph unicode="&#xe66f;" d="M326.643 662.801c-59.795 0-108.327-48.532-108.327-108.327s48.532-108.364 108.327-108.364c59.833 0 108.327 48.569 108.327 108.364s-48.494 108.327-108.327 108.327zM512.038 960.076c-282.723 0-512.038-229.315-512.038-512.038s229.315-512.038 512.038-512.038c282.723 0 512.038 229.315 512.038 512.038s-229.315 512.038-512.038 512.038zM512.038 883.574c239.142 0 433.080-193.937 433.080-433.080s-193.937-433.080-433.080-433.080c-239.142 0-433.080 193.937-433.080 433.080s193.937 433.080 433.080 433.080zM697.13 662.801c59.795 0 108.327-48.532 108.327-108.327s-48.532-108.364-108.327-108.364c-59.833 0-108.327 48.569-108.327 108.364s48.494 108.327 108.327 108.327zM793.891 344.927c-14.93-43.127-39.422-81.755-71.021-113.316-53.974-53.937-128.548-87.349-210.87-87.349s-156.934 33.413-210.832 87.349c-31.561 31.523-56.091 70.189-71.021 113.316h60.324c12.171-27.592 29.406-52.538 50.421-73.553 43.769-43.807 104.282-70.907 171.108-70.907 66.788 0 127.339 27.101 171.145 70.907 21.015 21.015 38.137 45.961 50.346 73.553h60.4z" />
<glyph unicode="&#xe670;" d="M779.566 160.931l-224.893-224.893-43.467 43.467-42.673-42.635-224.024 224.061 153.078 153.003v-208.565h228.937v208.602zM799.145 715.566l224.061-224.024-42.635-42.673 43.467-43.467-224.893-224.893-153.003 153.078h208.565v228.937h-208.565zM244.51 735.145l224.893 224.893 43.467-43.467 42.673 42.635 224.024-224.061-153.041-153.003v208.565h-228.937v-208.565zM0.038 490.673l224.893 224.893 153.003-153.041h-208.565v-228.937h208.602l-153.041-153.078-224.061 224.024 42.635 42.673z" />
<glyph unicode="&#xe671;" d="M512.038 960.038c-282.723 0-512-229.277-512-512s229.277-512 512-512c282.723 0 512 229.277 512 512s-229.277 512-512 512zM580.564 252.74h111.199v-30.2h-111.199v30.2zM563.253 211.201c29.028-18.823 48.191-51.064 48.191-87.689 0-58.056-48.154-105.114-107.533-105.114-59.417 0-107.571 47.057-107.571 105.114 0 36.588 19.125 68.791 48.154 87.614v608.572c0 31.939 26.685 58.019 59.379 58.019v0c32.695 0 59.379-26.080 59.379-58.019v-608.496zM482.405 469.091h42.975v-282.269c26.949-8.467 46.49-33.224 46.49-62.479 0-36.172-30.087-65.578-67.128-65.578-37.079 0-67.166 29.406-67.166 65.578 0 28.575 18.71 52.878 44.827 61.912v282.836zM574.554 815.955h55.675v-30.2h-55.675v30.2zM575.235 753.401h111.199v-30.238h-111.199v30.238zM575.235 690.809h55.6v-30.238h-55.6v30.238zM575.613 628.217h55.6v-30.2h-55.6v30.2zM575.953 565.662h55.6v-30.238h-55.6v30.238zM577.88 503.070h111.237v-30.238h-111.237v30.238zM576.558 440.478h55.675v-30.2h-55.675v30.2zM576.898 377.924h55.6v-30.238h-55.6v30.238zM577.238 315.332h55.675v-30.238h-55.675v30.238z" />
<glyph unicode="&#xe672;" d="M0.038 469.129c5.67 139.509 66.901 264.618 162.188 353.743 34.244-101.334 55.070-222.587 57.641-353.743h-219.828zM544.468 960.038c97.592-6.085 187.738-39.574 262.992-92.792-40.708-113.127-65.427-250.217-67.543-398.117h-195.449v490.909zM739.917 426.947c2.117-147.862 26.836-284.99 67.543-398.117-75.254-53.218-165.4-86.707-262.992-92.792v490.909h195.449zM860.301 824.308c96.118-89.239 158.068-214.99 163.737-355.18h-219.942c2.003 131.458 22.414 253.203 56.204 355.18zM1024.038 426.947c-5.67-140.19-67.619-265.941-163.737-355.255-33.791 101.977-54.201 223.797-56.204 355.255h219.942zM479.57-63.962c-96.798 6.048-186.264 39.044-261.103 91.507 40.178 113.769 64.255 251.238 65.805 399.402h195.298v-490.909zM284.045 469.129c-2.759 147.673-28.121 284.386-69.282 396.832 75.632 53.974 166.421 87.954 264.807 94.077v-490.909h-195.525zM165.4 70.18c-97.101 89.352-159.693 215.708-165.362 356.767h220.055c-1.398-131.799-21.355-254.11-54.692-356.767z" />
</font>
</defs>
</svg>
